<?xml version="1.0" encoding="UTF-8" standalone="no"?>
<svg
   xmlns:dc="http://purl.org/dc/elements/1.1/"
   xmlns:cc="http://creativecommons.org/ns#"
   xmlns:rdf="http://www.w3.org/1999/02/22-rdf-syntax-ns#"
   xmlns:svg="http://www.w3.org/2000/svg"
   xmlns="http://www.w3.org/2000/svg"
   version="1.1"
   id="svg2"
   xml:space="preserve"
   width="322.66666"
   height="274.66666"
   viewBox="0 0 322.66666 274.66666"><metadata
     id="metadata8"><rdf:RDF><cc:Work
         rdf:about=""><dc:format>image/svg+xml</dc:format><dc:type
           rdf:resource="http://purl.org/dc/dcmitype/StillImage" /></cc:Work></rdf:RDF></metadata><defs
     id="defs6"><clipPath
       clipPathUnits="userSpaceOnUse"
       id="clipPath20"><path
         d="M 0,206 H 242 V 0 H 0 Z"
         id="path18" /></clipPath><clipPath
       clipPathUnits="userSpaceOnUse"
       id="clipPath28"><path
         d="m 515,-933 h -688 v 713 h 688 z"
         id="path26" /></clipPath><linearGradient
       x1="0"
       y1="0"
       x2="1"
       y2="0"
       gradientUnits="userSpaceOnUse"
       gradientTransform="matrix(881.593,0,0,881.593,-131.6364,502.9771)"
       spreadMethod="pad"
       id="linearGradient40"><stop
         style="stop-opacity:1;stop-color:#f2b90c"
         offset="0"
         id="stop32" /><stop
         style="stop-opacity:1;stop-color:#f2b90c"
         offset="0.000895"
         id="stop34" /><stop
         style="stop-opacity:1;stop-color:#ffffff"
         offset="0.40565642"
         id="stop36" /><stop
         style="stop-opacity:1;stop-color:#ffffff"
         offset="1"
         id="stop38" /></linearGradient><linearGradient
       x1="0"
       y1="0"
       x2="1"
       y2="0"
       gradientUnits="userSpaceOnUse"
       gradientTransform="matrix(883.949,0,0,883.949,-131.3944,504.0861)"
       spreadMethod="pad"
       id="linearGradient54"><stop
         style="stop-opacity:1;stop-color:#f2b90c"
         offset="0"
         id="stop46" /><stop
         style="stop-opacity:1;stop-color:#f2b90c"
         offset="0.000895"
         id="stop48" /><stop
         style="stop-opacity:1;stop-color:#ffffff"
         offset="0.40565642"
         id="stop50" /><stop
         style="stop-opacity:1;stop-color:#ffffff"
         offset="1"
         id="stop52" /></linearGradient><linearGradient
       x1="0"
       y1="0"
       x2="1"
       y2="0"
       gradientUnits="userSpaceOnUse"
       gradientTransform="matrix(886.095,0,0,886.095,-131.0604,505.2291)"
       spreadMethod="pad"
       id="linearGradient68"><stop
         style="stop-opacity:1;stop-color:#f2b90c"
         offset="0"
         id="stop60" /><stop
         style="stop-opacity:1;stop-color:#f2b90c"
         offset="0.000895"
         id="stop62" /><stop
         style="stop-opacity:1;stop-color:#ffffff"
         offset="0.40565642"
         id="stop64" /><stop
         style="stop-opacity:1;stop-color:#ffffff"
         offset="1"
         id="stop66" /></linearGradient><linearGradient
       x1="0"
       y1="0"
       x2="1"
       y2="0"
       gradientUnits="userSpaceOnUse"
       gradientTransform="matrix(887.939,0,0,887.939,-130.6244,506.3531)"
       spreadMethod="pad"
       id="linearGradient82"><stop
         style="stop-opacity:1;stop-color:#f2b90c"
         offset="0"
         id="stop74" /><stop
         style="stop-opacity:1;stop-color:#f2b90c"
         offset="0.000895"
         id="stop76" /><stop
         style="stop-opacity:1;stop-color:#ffffff"
         offset="0.40565642"
         id="stop78" /><stop
         style="stop-opacity:1;stop-color:#ffffff"
         offset="1"
         id="stop80" /></linearGradient><linearGradient
       x1="0"
       y1="0"
       x2="1"
       y2="0"
       gradientUnits="userSpaceOnUse"
       gradientTransform="matrix(889.567,0,0,889.567,-130.0884,507.4821)"
       spreadMethod="pad"
       id="linearGradient96"><stop
         style="stop-opacity:1;stop-color:#f2b90c"
         offset="0"
         id="stop88" /><stop
         style="stop-opacity:1;stop-color:#f2b90c"
         offset="0.000895"
         id="stop90" /><stop
         style="stop-opacity:1;stop-color:#ffffff"
         offset="0.40565642"
         id="stop92" /><stop
         style="stop-opacity:1;stop-color:#ffffff"
         offset="1"
         id="stop94" /></linearGradient><linearGradient
       x1="0"
       y1="0"
       x2="1"
       y2="0"
       gradientUnits="userSpaceOnUse"
       gradientTransform="matrix(890.919,0,0,890.919,-129.4524,508.6151)"
       spreadMethod="pad"
       id="linearGradient110"><stop
         style="stop-opacity:1;stop-color:#f2b90c"
         offset="0"
         id="stop102" /><stop
         style="stop-opacity:1;stop-color:#f2b90c"
         offset="0.000895"
         id="stop104" /><stop
         style="stop-opacity:1;stop-color:#ffffff"
         offset="0.40565642"
         id="stop106" /><stop
         style="stop-opacity:1;stop-color:#ffffff"
         offset="1"
         id="stop108" /></linearGradient><linearGradient
       x1="0"
       y1="0"
       x2="1"
       y2="0"
       gradientUnits="userSpaceOnUse"
       gradientTransform="matrix(892.003,0,0,892.003,-128.7184,509.7601)"
       spreadMethod="pad"
       id="linearGradient124"><stop
         style="stop-opacity:1;stop-color:#f2b90c"
         offset="0"
         id="stop116" /><stop
         style="stop-opacity:1;stop-color:#f2b90c"
         offset="0.000895"
         id="stop118" /><stop
         style="stop-opacity:1;stop-color:#ffffff"
         offset="0.40565642"
         id="stop120" /><stop
         style="stop-opacity:1;stop-color:#ffffff"
         offset="1"
         id="stop122" /></linearGradient><linearGradient
       x1="0"
       y1="0"
       x2="1"
       y2="0"
       gradientUnits="userSpaceOnUse"
       gradientTransform="matrix(892.865,0,0,892.865,-127.8934,510.8931)"
       spreadMethod="pad"
       id="linearGradient138"><stop
         style="stop-opacity:1;stop-color:#f2b90c"
         offset="0"
         id="stop130" /><stop
         style="stop-opacity:1;stop-color:#f2b90c"
         offset="0.000895"
         id="stop132" /><stop
         style="stop-opacity:1;stop-color:#ffffff"
         offset="0.40565642"
         id="stop134" /><stop
         style="stop-opacity:1;stop-color:#ffffff"
         offset="1"
         id="stop136" /></linearGradient><linearGradient
       x1="0"
       y1="0"
       x2="1"
       y2="0"
       gradientUnits="userSpaceOnUse"
       gradientTransform="matrix(893.449,0,0,893.449,-126.9624,512.0271)"
       spreadMethod="pad"
       id="linearGradient152"><stop
         style="stop-opacity:1;stop-color:#f2b90c"
         offset="0"
         id="stop144" /><stop
         style="stop-opacity:1;stop-color:#f2b90c"
         offset="0.000895"
         id="stop146" /><stop
         style="stop-opacity:1;stop-color:#ffffff"
         offset="0.40565642"
         id="stop148" /><stop
         style="stop-opacity:1;stop-color:#ffffff"
         offset="1"
         id="stop150" /></linearGradient><linearGradient
       x1="0"
       y1="0"
       x2="1"
       y2="0"
       gradientUnits="userSpaceOnUse"
       gradientTransform="matrix(893.776,0,0,893.776,-125.9454,513.1611)"
       spreadMethod="pad"
       id="linearGradient166"><stop
         style="stop-opacity:1;stop-color:#f2b90c"
         offset="0"
         id="stop158" /><stop
         style="stop-opacity:1;stop-color:#f2b90c"
         offset="0.000895"
         id="stop160" /><stop
         style="stop-opacity:1;stop-color:#ffffff"
         offset="0.40565642"
         id="stop162" /><stop
         style="stop-opacity:1;stop-color:#ffffff"
         offset="1"
         id="stop164" /></linearGradient><linearGradient
       x1="0"
       y1="0"
       x2="1"
       y2="0"
       gradientUnits="userSpaceOnUse"
       gradientTransform="matrix(893.862,0,0,893.862,-124.8204,513.7141)"
       spreadMethod="pad"
       id="linearGradient180"><stop
         style="stop-opacity:1;stop-color:#f2b90c"
         offset="0"
         id="stop172" /><stop
         style="stop-opacity:1;stop-color:#f2b90c"
         offset="0.000895"
         id="stop174" /><stop
         style="stop-opacity:1;stop-color:#ffffff"
         offset="0.40565642"
         id="stop176" /><stop
         style="stop-opacity:1;stop-color:#ffffff"
         offset="1"
         id="stop178" /></linearGradient><linearGradient
       x1="0"
       y1="0"
       x2="1"
       y2="0"
       gradientUnits="userSpaceOnUse"
       gradientTransform="matrix(893.643,0,0,893.643,-123.5954,512.2901)"
       spreadMethod="pad"
       id="linearGradient194"><stop
         style="stop-opacity:1;stop-color:#f2b90c"
         offset="0"
         id="stop186" /><stop
         style="stop-opacity:1;stop-color:#f2b90c"
         offset="0.000895"
         id="stop188" /><stop
         style="stop-opacity:1;stop-color:#ffffff"
         offset="0.40565642"
         id="stop190" /><stop
         style="stop-opacity:1;stop-color:#ffffff"
         offset="1"
         id="stop192" /></linearGradient><linearGradient
       x1="0"
       y1="0"
       x2="1"
       y2="0"
       gradientUnits="userSpaceOnUse"
       gradientTransform="matrix(893.223,0,0,893.223,-122.2564,510.8941)"
       spreadMethod="pad"
       id="linearGradient208"><stop
         style="stop-opacity:1;stop-color:#f2b90c"
         offset="0"
         id="stop200" /><stop
         style="stop-opacity:1;stop-color:#f2b90c"
         offset="0.000895"
         id="stop202" /><stop
         style="stop-opacity:1;stop-color:#ffffff"
         offset="0.40565642"
         id="stop204" /><stop
         style="stop-opacity:1;stop-color:#ffffff"
         offset="1"
         id="stop206" /></linearGradient><linearGradient
       x1="0"
       y1="0"
       x2="1"
       y2="0"
       gradientUnits="userSpaceOnUse"
       gradientTransform="matrix(892.5,0,0,892.5,-120.7714,509.5221)"
       spreadMethod="pad"
       id="linearGradient222"><stop
         style="stop-opacity:1;stop-color:#f2b90c"
         offset="0"
         id="stop214" /><stop
         style="stop-opacity:1;stop-color:#f2b90c"
         offset="0.000895"
         id="stop216" /><stop
         style="stop-opacity:1;stop-color:#ffffff"
         offset="0.40565642"
         id="stop218" /><stop
         style="stop-opacity:1;stop-color:#ffffff"
         offset="1"
         id="stop220" /></linearGradient><linearGradient
       x1="0"
       y1="0"
       x2="1"
       y2="0"
       gradientUnits="userSpaceOnUse"
       gradientTransform="matrix(891.561,0,0,891.561,-119.1604,508.1791)"
       spreadMethod="pad"
       id="linearGradient236"><stop
         style="stop-opacity:1;stop-color:#f2b90c"
         offset="0"
         id="stop228" /><stop
         style="stop-opacity:1;stop-color:#f2b90c"
         offset="0.000895"
         id="stop230" /><stop
         style="stop-opacity:1;stop-color:#ffffff"
         offset="0.40565642"
         id="stop232" /><stop
         style="stop-opacity:1;stop-color:#ffffff"
         offset="1"
         id="stop234" /></linearGradient><linearGradient
       x1="0"
       y1="0"
       x2="1"
       y2="0"
       gradientUnits="userSpaceOnUse"
       gradientTransform="matrix(890.331,0,0,890.331,-117.4114,506.8651)"
       spreadMethod="pad"
       id="linearGradient250"><stop
         style="stop-opacity:1;stop-color:#f2b90c"
         offset="0"
         id="stop242" /><stop
         style="stop-opacity:1;stop-color:#f2b90c"
         offset="0.000895"
         id="stop244" /><stop
         style="stop-opacity:1;stop-color:#ffffff"
         offset="0.40565642"
         id="stop246" /><stop
         style="stop-opacity:1;stop-color:#ffffff"
         offset="1"
         id="stop248" /></linearGradient><linearGradient
       x1="0"
       y1="0"
       x2="1"
       y2="0"
       gradientUnits="userSpaceOnUse"
       gradientTransform="matrix(888.866,0,0,888.866,-115.5424,505.5901)"
       spreadMethod="pad"
       id="linearGradient264"><stop
         style="stop-opacity:1;stop-color:#f2b90c"
         offset="0"
         id="stop256" /><stop
         style="stop-opacity:1;stop-color:#f2b90c"
         offset="0.000895"
         id="stop258" /><stop
         style="stop-opacity:1;stop-color:#ffffff"
         offset="0.40565642"
         id="stop260" /><stop
         style="stop-opacity:1;stop-color:#ffffff"
         offset="1"
         id="stop262" /></linearGradient><linearGradient
       x1="0"
       y1="0"
       x2="1"
       y2="0"
       gradientUnits="userSpaceOnUse"
       gradientTransform="matrix(887.141,0,0,887.141,-113.5474,504.3331)"
       spreadMethod="pad"
       id="linearGradient278"><stop
         style="stop-opacity:1;stop-color:#f2b90c"
         offset="0"
         id="stop270" /><stop
         style="stop-opacity:1;stop-color:#f2b90c"
         offset="0.000895"
         id="stop272" /><stop
         style="stop-opacity:1;stop-color:#ffffff"
         offset="0.40565642"
         id="stop274" /><stop
         style="stop-opacity:1;stop-color:#ffffff"
         offset="1"
         id="stop276" /></linearGradient><linearGradient
       x1="0"
       y1="0"
       x2="1"
       y2="0"
       gradientUnits="userSpaceOnUse"
       gradientTransform="matrix(885.153,0,0,885.153,-111.4204,503.1151)"
       spreadMethod="pad"
       id="linearGradient292"><stop
         style="stop-opacity:1;stop-color:#f2b90c"
         offset="0"
         id="stop284" /><stop
         style="stop-opacity:1;stop-color:#f2b90c"
         offset="0.000895"
         id="stop286" /><stop
         style="stop-opacity:1;stop-color:#ffffff"
         offset="0.40565642"
         id="stop288" /><stop
         style="stop-opacity:1;stop-color:#ffffff"
         offset="1"
         id="stop290" /></linearGradient><linearGradient
       x1="0"
       y1="0"
       x2="1"
       y2="0"
       gradientUnits="userSpaceOnUse"
       gradientTransform="matrix(882.903,0,0,882.903,-109.1604,501.9271)"
       spreadMethod="pad"
       id="linearGradient306"><stop
         style="stop-opacity:1;stop-color:#f2b90c"
         offset="0"
         id="stop298" /><stop
         style="stop-opacity:1;stop-color:#f2b90c"
         offset="0.000895"
         id="stop300" /><stop
         style="stop-opacity:1;stop-color:#ffffff"
         offset="0.40565642"
         id="stop302" /><stop
         style="stop-opacity:1;stop-color:#ffffff"
         offset="1"
         id="stop304" /></linearGradient><linearGradient
       x1="0"
       y1="0"
       x2="1"
       y2="0"
       gradientUnits="userSpaceOnUse"
       gradientTransform="matrix(881.587,0,0,881.587,-107.9474,500.7631)"
       spreadMethod="pad"
       id="linearGradient320"><stop
         style="stop-opacity:1;stop-color:#f2b90c"
         offset="0"
         id="stop312" /><stop
         style="stop-opacity:1;stop-color:#f2b90c"
         offset="0.000895"
         id="stop314" /><stop
         style="stop-opacity:1;stop-color:#ffffff"
         offset="0.40565642"
         id="stop316" /><stop
         style="stop-opacity:1;stop-color:#ffffff"
         offset="1"
         id="stop318" /></linearGradient><linearGradient
       x1="0"
       y1="0"
       x2="1"
       y2="0"
       gradientUnits="userSpaceOnUse"
       gradientTransform="matrix(883.974,0,0,883.974,-110.5694,499.6511)"
       spreadMethod="pad"
       id="linearGradient334"><stop
         style="stop-opacity:1;stop-color:#f2b90c"
         offset="0"
         id="stop326" /><stop
         style="stop-opacity:1;stop-color:#f2b90c"
         offset="0.000895"
         id="stop328" /><stop
         style="stop-opacity:1;stop-color:#ffffff"
         offset="0.40565642"
         id="stop330" /><stop
         style="stop-opacity:1;stop-color:#ffffff"
         offset="1"
         id="stop332" /></linearGradient><linearGradient
       x1="0"
       y1="0"
       x2="1"
       y2="0"
       gradientUnits="userSpaceOnUse"
       gradientTransform="matrix(580.871,0,0,580.871,352.6837,175.9341)"
       spreadMethod="pad"
       id="linearGradient346"><stop
         style="stop-opacity:1;stop-color:#ffffff"
         offset="0"
         id="stop340" /><stop
         style="stop-opacity:1;stop-color:#ffffff"
         offset="0.15744064"
         id="stop342" /><stop
         style="stop-opacity:1;stop-color:#f21763"
         offset="1"
         id="stop344" /></linearGradient><linearGradient
       x1="0"
       y1="0"
       x2="1"
       y2="0"
       gradientUnits="userSpaceOnUse"
       gradientTransform="matrix(580.871,0,0,580.871,349.9961,180.8651)"
       spreadMethod="pad"
       id="linearGradient358"><stop
         style="stop-opacity:1;stop-color:#ffffff"
         offset="0"
         id="stop352" /><stop
         style="stop-opacity:1;stop-color:#ffffff"
         offset="0.15744064"
         id="stop354" /><stop
         style="stop-opacity:1;stop-color:#f21763"
         offset="1"
         id="stop356" /></linearGradient><linearGradient
       x1="0"
       y1="0"
       x2="1"
       y2="0"
       gradientUnits="userSpaceOnUse"
       gradientTransform="matrix(580.871,0,0,580.871,347.3085,185.7961)"
       spreadMethod="pad"
       id="linearGradient370"><stop
         style="stop-opacity:1;stop-color:#ffffff"
         offset="0"
         id="stop364" /><stop
         style="stop-opacity:1;stop-color:#ffffff"
         offset="0.15744064"
         id="stop366" /><stop
         style="stop-opacity:1;stop-color:#f21763"
         offset="1"
         id="stop368" /></linearGradient><linearGradient
       x1="0"
       y1="0"
       x2="1"
       y2="0"
       gradientUnits="userSpaceOnUse"
       gradientTransform="matrix(580.871,0,0,580.871,344.6209,190.7272)"
       spreadMethod="pad"
       id="linearGradient382"><stop
         style="stop-opacity:1;stop-color:#ffffff"
         offset="0"
         id="stop376" /><stop
         style="stop-opacity:1;stop-color:#ffffff"
         offset="0.15744064"
         id="stop378" /><stop
         style="stop-opacity:1;stop-color:#f21763"
         offset="1"
         id="stop380" /></linearGradient><linearGradient
       x1="0"
       y1="0"
       x2="1"
       y2="0"
       gradientUnits="userSpaceOnUse"
       gradientTransform="matrix(580.871,0,0,580.871,341.9333,195.6584)"
       spreadMethod="pad"
       id="linearGradient394"><stop
         style="stop-opacity:1;stop-color:#ffffff"
         offset="0"
         id="stop388" /><stop
         style="stop-opacity:1;stop-color:#ffffff"
         offset="0.15744064"
         id="stop390" /><stop
         style="stop-opacity:1;stop-color:#f21763"
         offset="1"
         id="stop392" /></linearGradient><linearGradient
       x1="0"
       y1="0"
       x2="1"
       y2="0"
       gradientUnits="userSpaceOnUse"
       gradientTransform="matrix(580.871,0,0,580.871,339.2458,200.5895)"
       spreadMethod="pad"
       id="linearGradient406"><stop
         style="stop-opacity:1;stop-color:#ffffff"
         offset="0"
         id="stop400" /><stop
         style="stop-opacity:1;stop-color:#ffffff"
         offset="0.15744064"
         id="stop402" /><stop
         style="stop-opacity:1;stop-color:#f21763"
         offset="1"
         id="stop404" /></linearGradient><linearGradient
       x1="0"
       y1="0"
       x2="1"
       y2="0"
       gradientUnits="userSpaceOnUse"
       gradientTransform="matrix(580.871,0,0,580.871,336.5582,205.5207)"
       spreadMethod="pad"
       id="linearGradient418"><stop
         style="stop-opacity:1;stop-color:#ffffff"
         offset="0"
         id="stop412" /><stop
         style="stop-opacity:1;stop-color:#ffffff"
         offset="0.15744064"
         id="stop414" /><stop
         style="stop-opacity:1;stop-color:#f21763"
         offset="1"
         id="stop416" /></linearGradient><linearGradient
       x1="0"
       y1="0"
       x2="1"
       y2="0"
       gradientUnits="userSpaceOnUse"
       gradientTransform="matrix(580.871,0,0,580.871,333.8706,210.4519)"
       spreadMethod="pad"
       id="linearGradient430"><stop
         style="stop-opacity:1;stop-color:#ffffff"
         offset="0"
         id="stop424" /><stop
         style="stop-opacity:1;stop-color:#ffffff"
         offset="0.15744064"
         id="stop426" /><stop
         style="stop-opacity:1;stop-color:#f21763"
         offset="1"
         id="stop428" /></linearGradient><linearGradient
       x1="0"
       y1="0"
       x2="1"
       y2="0"
       gradientUnits="userSpaceOnUse"
       gradientTransform="matrix(580.871,0,0,580.871,331.183,215.3831)"
       spreadMethod="pad"
       id="linearGradient442"><stop
         style="stop-opacity:1;stop-color:#ffffff"
         offset="0"
         id="stop436" /><stop
         style="stop-opacity:1;stop-color:#ffffff"
         offset="0.15744064"
         id="stop438" /><stop
         style="stop-opacity:1;stop-color:#f21763"
         offset="1"
         id="stop440" /></linearGradient><linearGradient
       x1="0"
       y1="0"
       x2="1"
       y2="0"
       gradientUnits="userSpaceOnUse"
       gradientTransform="matrix(580.871,0,0,580.871,328.4954,220.3143)"
       spreadMethod="pad"
       id="linearGradient454"><stop
         style="stop-opacity:1;stop-color:#ffffff"
         offset="0"
         id="stop448" /><stop
         style="stop-opacity:1;stop-color:#ffffff"
         offset="0.15744064"
         id="stop450" /><stop
         style="stop-opacity:1;stop-color:#f21763"
         offset="1"
         id="stop452" /></linearGradient><linearGradient
       x1="0"
       y1="0"
       x2="1"
       y2="0"
       gradientUnits="userSpaceOnUse"
       gradientTransform="matrix(580.871,0,0,580.871,325.8078,225.2455)"
       spreadMethod="pad"
       id="linearGradient466"><stop
         style="stop-opacity:1;stop-color:#ffffff"
         offset="0"
         id="stop460" /><stop
         style="stop-opacity:1;stop-color:#ffffff"
         offset="0.15744064"
         id="stop462" /><stop
         style="stop-opacity:1;stop-color:#f21763"
         offset="1"
         id="stop464" /></linearGradient><linearGradient
       x1="0"
       y1="0"
       x2="1"
       y2="0"
       gradientUnits="userSpaceOnUse"
       gradientTransform="matrix(580.871,0,0,580.871,323.1202,230.1766)"
       spreadMethod="pad"
       id="linearGradient478"><stop
         style="stop-opacity:1;stop-color:#ffffff"
         offset="0"
         id="stop472" /><stop
         style="stop-opacity:1;stop-color:#ffffff"
         offset="0.15744064"
         id="stop474" /><stop
         style="stop-opacity:1;stop-color:#f21763"
         offset="1"
         id="stop476" /></linearGradient><linearGradient
       x1="0"
       y1="0"
       x2="1"
       y2="0"
       gradientUnits="userSpaceOnUse"
       gradientTransform="matrix(580.871,0,0,580.871,320.4326,235.1078)"
       spreadMethod="pad"
       id="linearGradient490"><stop
         style="stop-opacity:1;stop-color:#ffffff"
         offset="0"
         id="stop484" /><stop
         style="stop-opacity:1;stop-color:#ffffff"
         offset="0.15744064"
         id="stop486" /><stop
         style="stop-opacity:1;stop-color:#f21763"
         offset="1"
         id="stop488" /></linearGradient><linearGradient
       x1="0"
       y1="0"
       x2="1"
       y2="0"
       gradientUnits="userSpaceOnUse"
       gradientTransform="matrix(580.871,0,0,580.871,317.745,240.039)"
       spreadMethod="pad"
       id="linearGradient502"><stop
         style="stop-opacity:1;stop-color:#ffffff"
         offset="0"
         id="stop496" /><stop
         style="stop-opacity:1;stop-color:#ffffff"
         offset="0.15744064"
         id="stop498" /><stop
         style="stop-opacity:1;stop-color:#f21763"
         offset="1"
         id="stop500" /></linearGradient><linearGradient
       x1="0"
       y1="0"
       x2="1"
       y2="0"
       gradientUnits="userSpaceOnUse"
       gradientTransform="matrix(580.871,0,0,580.871,315.0574,244.9702)"
       spreadMethod="pad"
       id="linearGradient514"><stop
         style="stop-opacity:1;stop-color:#ffffff"
         offset="0"
         id="stop508" /><stop
         style="stop-opacity:1;stop-color:#ffffff"
         offset="0.15744064"
         id="stop510" /><stop
         style="stop-opacity:1;stop-color:#f21763"
         offset="1"
         id="stop512" /></linearGradient><linearGradient
       x1="0"
       y1="0"
       x2="1"
       y2="0"
       gradientUnits="userSpaceOnUse"
       gradientTransform="matrix(580.871,0,0,580.871,312.3698,249.9014)"
       spreadMethod="pad"
       id="linearGradient526"><stop
         style="stop-opacity:1;stop-color:#ffffff"
         offset="0"
         id="stop520" /><stop
         style="stop-opacity:1;stop-color:#ffffff"
         offset="0.15744064"
         id="stop522" /><stop
         style="stop-opacity:1;stop-color:#f21763"
         offset="1"
         id="stop524" /></linearGradient><linearGradient
       x1="0"
       y1="0"
       x2="1"
       y2="0"
       gradientUnits="userSpaceOnUse"
       gradientTransform="matrix(580.871,0,0,580.871,309.6822,254.8326)"
       spreadMethod="pad"
       id="linearGradient538"><stop
         style="stop-opacity:1;stop-color:#ffffff"
         offset="0"
         id="stop532" /><stop
         style="stop-opacity:1;stop-color:#ffffff"
         offset="0.15744064"
         id="stop534" /><stop
         style="stop-opacity:1;stop-color:#f21763"
         offset="1"
         id="stop536" /></linearGradient><linearGradient
       x1="0"
       y1="0"
       x2="1"
       y2="0"
       gradientUnits="userSpaceOnUse"
       gradientTransform="matrix(580.871,0,0,580.871,306.9946,259.7637)"
       spreadMethod="pad"
       id="linearGradient550"><stop
         style="stop-opacity:1;stop-color:#ffffff"
         offset="0"
         id="stop544" /><stop
         style="stop-opacity:1;stop-color:#ffffff"
         offset="0.15744064"
         id="stop546" /><stop
         style="stop-opacity:1;stop-color:#f21763"
         offset="1"
         id="stop548" /></linearGradient><linearGradient
       x1="0"
       y1="0"
       x2="1"
       y2="0"
       gradientUnits="userSpaceOnUse"
       gradientTransform="matrix(580.871,0,0,580.871,304.307,264.6949)"
       spreadMethod="pad"
       id="linearGradient562"><stop
         style="stop-opacity:1;stop-color:#ffffff"
         offset="0"
         id="stop556" /><stop
         style="stop-opacity:1;stop-color:#ffffff"
         offset="0.15744064"
         id="stop558" /><stop
         style="stop-opacity:1;stop-color:#f21763"
         offset="1"
         id="stop560" /></linearGradient><linearGradient
       x1="0"
       y1="0"
       x2="1"
       y2="0"
       gradientUnits="userSpaceOnUse"
       gradientTransform="matrix(580.871,0,0,580.871,301.6194,269.6261)"
       spreadMethod="pad"
       id="linearGradient574"><stop
         style="stop-opacity:1;stop-color:#ffffff"
         offset="0"
         id="stop568" /><stop
         style="stop-opacity:1;stop-color:#ffffff"
         offset="0.15744064"
         id="stop570" /><stop
         style="stop-opacity:1;stop-color:#f21763"
         offset="1"
         id="stop572" /></linearGradient><linearGradient
       x1="0"
       y1="0"
       x2="1"
       y2="0"
       gradientUnits="userSpaceOnUse"
       gradientTransform="matrix(580.871,0,0,580.871,298.9319,274.5573)"
       spreadMethod="pad"
       id="linearGradient586"><stop
         style="stop-opacity:1;stop-color:#ffffff"
         offset="0"
         id="stop580" /><stop
         style="stop-opacity:1;stop-color:#ffffff"
         offset="0.15744064"
         id="stop582" /><stop
         style="stop-opacity:1;stop-color:#f21763"
         offset="1"
         id="stop584" /></linearGradient><linearGradient
       x1="0"
       y1="0"
       x2="1"
       y2="0"
       gradientUnits="userSpaceOnUse"
       gradientTransform="matrix(580.871,0,0,580.871,296.2443,279.48847)"
       spreadMethod="pad"
       id="linearGradient598"><stop
         style="stop-opacity:1;stop-color:#ffffff"
         offset="0"
         id="stop592" /><stop
         style="stop-opacity:1;stop-color:#ffffff"
         offset="0.15744064"
         id="stop594" /><stop
         style="stop-opacity:1;stop-color:#f21763"
         offset="1"
         id="stop596" /></linearGradient><linearGradient
       x1="0"
       y1="0"
       x2="1"
       y2="0"
       gradientUnits="userSpaceOnUse"
       gradientTransform="matrix(580.871,0,0,580.871,293.5567,284.41966)"
       spreadMethod="pad"
       id="linearGradient610"><stop
         style="stop-opacity:1;stop-color:#ffffff"
         offset="0"
         id="stop604" /><stop
         style="stop-opacity:1;stop-color:#ffffff"
         offset="0.15744064"
         id="stop606" /><stop
         style="stop-opacity:1;stop-color:#f21763"
         offset="1"
         id="stop608" /></linearGradient><linearGradient
       x1="0"
       y1="0"
       x2="1"
       y2="0"
       gradientUnits="userSpaceOnUse"
       gradientTransform="matrix(580.871,0,0,580.871,290.8691,289.35084)"
       spreadMethod="pad"
       id="linearGradient622"><stop
         style="stop-opacity:1;stop-color:#ffffff"
         offset="0"
         id="stop616" /><stop
         style="stop-opacity:1;stop-color:#ffffff"
         offset="0.15744064"
         id="stop618" /><stop
         style="stop-opacity:1;stop-color:#f21763"
         offset="1"
         id="stop620" /></linearGradient><linearGradient
       x1="0"
       y1="0"
       x2="1"
       y2="0"
       gradientUnits="userSpaceOnUse"
       gradientTransform="matrix(580.871,0,0,580.871,288.1815,294.28202)"
       spreadMethod="pad"
       id="linearGradient634"><stop
         style="stop-opacity:1;stop-color:#ffffff"
         offset="0"
         id="stop628" /><stop
         style="stop-opacity:1;stop-color:#ffffff"
         offset="0.15744064"
         id="stop630" /><stop
         style="stop-opacity:1;stop-color:#f21763"
         offset="1"
         id="stop632" /></linearGradient><linearGradient
       x1="0"
       y1="0"
       x2="1"
       y2="0"
       gradientUnits="userSpaceOnUse"
       gradientTransform="matrix(580.871,0,0,580.871,285.4939,299.2132)"
       spreadMethod="pad"
       id="linearGradient646"><stop
         style="stop-opacity:1;stop-color:#ffffff"
         offset="0"
         id="stop640" /><stop
         style="stop-opacity:1;stop-color:#ffffff"
         offset="0.15744064"
         id="stop642" /><stop
         style="stop-opacity:1;stop-color:#f21763"
         offset="1"
         id="stop644" /></linearGradient><linearGradient
       x1="0"
       y1="0"
       x2="1"
       y2="0"
       gradientUnits="userSpaceOnUse"
       gradientTransform="matrix(580.871,0,0,580.871,282.8063,304.1444)"
       spreadMethod="pad"
       id="linearGradient658"><stop
         style="stop-opacity:1;stop-color:#ffffff"
         offset="0"
         id="stop652" /><stop
         style="stop-opacity:1;stop-color:#ffffff"
         offset="0.15744064"
         id="stop654" /><stop
         style="stop-opacity:1;stop-color:#f21763"
         offset="1"
         id="stop656" /></linearGradient><linearGradient
       x1="0"
       y1="0"
       x2="1"
       y2="0"
       gradientUnits="userSpaceOnUse"
       gradientTransform="matrix(580.871,0,0,580.871,280.1187,309.0756)"
       spreadMethod="pad"
       id="linearGradient670"><stop
         style="stop-opacity:1;stop-color:#ffffff"
         offset="0"
         id="stop664" /><stop
         style="stop-opacity:1;stop-color:#ffffff"
         offset="0.15744064"
         id="stop666" /><stop
         style="stop-opacity:1;stop-color:#f21763"
         offset="1"
         id="stop668" /></linearGradient><linearGradient
       x1="0"
       y1="0"
       x2="1"
       y2="0"
       gradientUnits="userSpaceOnUse"
       gradientTransform="matrix(580.871,0,0,580.871,277.4311,314.0068)"
       spreadMethod="pad"
       id="linearGradient682"><stop
         style="stop-opacity:1;stop-color:#ffffff"
         offset="0"
         id="stop676" /><stop
         style="stop-opacity:1;stop-color:#ffffff"
         offset="0.15744064"
         id="stop678" /><stop
         style="stop-opacity:1;stop-color:#f21763"
         offset="1"
         id="stop680" /></linearGradient><linearGradient
       x1="0"
       y1="0"
       x2="1"
       y2="0"
       gradientUnits="userSpaceOnUse"
       gradientTransform="matrix(580.871,0,0,580.871,274.7435,318.9379)"
       spreadMethod="pad"
       id="linearGradient694"><stop
         style="stop-opacity:1;stop-color:#ffffff"
         offset="0"
         id="stop688" /><stop
         style="stop-opacity:1;stop-color:#ffffff"
         offset="0.15744064"
         id="stop690" /><stop
         style="stop-opacity:1;stop-color:#f21763"
         offset="1"
         id="stop692" /></linearGradient></defs><g
     id="g10"
     transform="matrix(1.3333333,0,0,-1.3333333,0,274.66667)"><path
       d="M 0,0 H 242 V 206 H 0 Z"
       style="fill:#f21763;fill-opacity:1;fill-rule:nonzero;stroke:none"
       id="path12" /><g
       id="g14"><g
         id="g16"
         clip-path="url(#clipPath20)"><g
           id="g22"><g
             id="g24"
             clip-path="url(#clipPath28)"><g
               id="g30"
               transform="translate(-373.3046,81.8131)"><path
                 d="m 0,0 166.718,-66.997 c 14.088,-5.662 29.734,3.459 31.751,18.498 l 23.915,178.078 c 3.006,22.401 32.952,27.804 43.602,7.867 l 84.65,-158.486 c 7.148,-13.391 24.995,-16.458 36.209,-6.237 l 132.789,121.04 c 16.706,15.225 43.119,0.111 38.462,-22.007 l -37.031,-175.813 c -3.128,-14.857 8.567,-28.677 23.734,-28.056 l 179.525,7.368 c 22.58,0.93 33.104,-27.631 15.321,-41.571 l -141.38,-110.883 c -11.945,-9.366 -11.872,-27.473 0.146,-36.747 l 142.257,-109.751 c 17.9,-13.806 7.598,-42.441 -14.994,-41.697 l -179.571,5.942 c -15.17,0.5 -26.756,-13.419 -23.51,-28.247 l 38.429,-175.518 c 4.832,-22.081 -21.459,-37.395 -38.283,-22.313 l -133.748,119.975 c -11.302,10.135 -29.121,6.92 -36.163,-6.526 l -83.381,-159.158 c -10.487,-20.024 -40.478,-14.852 -43.662,7.522 l -25.338,177.881 c -2.142,15.028 -17.855,24.02 -31.897,18.248 L 2.371,-595.908 c -20.906,-8.595 -40.557,14.644 -28.615,33.822 l 94.928,152.552 c 8.023,12.891 1.76,29.877 -12.705,34.476 l -171.218,54.478 c -21.539,6.855 -21.661,37.285 -0.178,44.306 l 170.78,55.839 c 14.429,4.722 20.553,21.755 12.428,34.581 l -96.144,151.79 C -40.439,-14.962 -20.972,8.426 0,0 Z"
                 style="fill:none;stroke:url(#linearGradient40);stroke-width:0.35;stroke-linecap:butt;stroke-linejoin:miter;stroke-miterlimit:10;stroke-dasharray:none;stroke-opacity:1"
                 id="path42" /></g><g
               id="g44"
               transform="translate(-378.2986,76.3289)"><path
                 d="m 0,0 167.857,-64.081 c 14.179,-5.413 29.666,3.972 31.423,19.058 l 20.805,178.468 c 2.618,22.45 32.466,28.377 43.454,8.627 l 87.396,-156.985 c 7.384,-13.263 25.281,-16.021 36.321,-5.602 l 130.655,123.337 c 16.438,15.513 43.107,0.863 38.832,-21.327 L 522.786,-94.939 c -2.868,-14.904 9.072,-28.524 24.222,-27.641 l 179.366,10.506 c 22.566,1.319 33.582,-27.041 16.042,-41.299 L 602.993,-266.705 c -11.778,-9.57 -11.392,-27.677 0.791,-36.737 l 144.158,-107.249 c 18.134,-13.493 8.337,-42.302 -14.26,-41.956 l -179.631,2.791 c -15.182,0.236 -26.515,-13.88 -23.012,-28.648 l 41.482,-174.82 c 5.222,-21.989 -20.806,-37.769 -37.889,-22.966 l -135.82,117.626 c -11.475,9.942 -29.237,6.406 -36.048,-7.154 l -80.588,-160.585 c -10.138,-20.199 -40.207,-15.558 -43.79,6.757 l -28.434,177.413 c -2.401,14.983 -18.274,23.706 -32.208,17.687 L 12.782,-595.779 c -20.752,-8.957 -40.803,13.925 -29.2,33.321 l 92.251,154.182 c 7.797,13.026 1.239,29.908 -13.303,34.257 l -172.143,51.476 c -21.66,6.475 -22.307,36.898 -0.951,44.299 l 169.776,58.807 c 14.344,4.963 20.173,22.112 11.827,34.796 L -27.74,-34.548 C -40.169,-15.669 -21.109,8.059 0,0 Z"
                 style="fill:none;stroke:url(#linearGradient54);stroke-width:0.35;stroke-linecap:butt;stroke-linejoin:miter;stroke-miterlimit:10;stroke-dasharray:none;stroke-opacity:1"
                 id="path56" /></g><g
               id="g58"
               transform="translate(-383.2132,70.7525)"><path
                 d="m 0,0 168.952,-61.141 c 14.269,-5.163 29.589,4.49 31.089,19.596 l 17.686,178.8 c 2.223,22.492 31.968,28.935 43.307,9.388 L 351.163,-8.793 c 7.613,-13.128 25.554,-15.583 36.405,-4.969 l 128.481,125.601 c 16.156,15.801 43.087,1.621 39.203,-20.647 L 524.387,-85.81 c -2.609,-14.951 9.56,-28.358 24.7,-27.207 l 179.158,13.632 c 22.529,1.714 34.047,-26.451 16.761,-41.013 L 607.579,-256.146 c -11.61,-9.775 -10.905,-27.873 1.429,-36.721 l 146.007,-104.715 c 18.36,-13.174 9.076,-42.15 -13.522,-42.194 l -179.671,-0.337 c -15.179,-0.026 -26.274,-14.341 -22.513,-29.05 l 44.53,-174.065 c 5.596,-21.898 -20.142,-38.128 -37.481,-23.631 l -137.851,115.231 c -11.648,9.734 -29.347,5.899 -35.913,-7.788 L 294.818,-721.39 c -9.788,-20.373 -39.93,-16.258 -43.905,5.994 l -31.525,176.888 c -2.667,14.944 -18.684,23.384 -32.511,17.12 L 23.178,-595.467 c -20.584,-9.318 -41.044,13.215 -29.78,32.814 l 89.55,155.767 c 7.566,13.154 0.72,29.924 -13.906,34.017 l -173.018,48.47 c -21.767,6.096 -22.946,36.507 -1.723,44.278 l 168.725,61.765 c 14.256,5.217 19.778,22.465 11.212,34.995 L -27.143,-35.019 C -39.892,-16.368 -21.252,7.684 0,0 Z"
                 style="fill:none;stroke:url(#linearGradient68);stroke-width:0.35;stroke-linecap:butt;stroke-linejoin:miter;stroke-miterlimit:10;stroke-dasharray:none;stroke-opacity:1"
                 id="path70" /></g><g
               id="g72"
               transform="translate(-388.0624,65.0827)"><path
                 d="m 0,0 169.995,-58.184 c 14.359,-4.913 29.513,5.009 30.735,20.138 l 14.563,179.083 c 1.837,22.528 31.455,29.491 43.139,10.139 l 92.824,-153.84 c 7.842,-12.993 25.825,-15.132 36.489,-4.336 l 126.268,127.82 c 15.882,16.081 43.047,2.37 39.559,-19.954 l -27.78,-177.515 c -2.348,-14.999 10.056,-28.186 25.165,-26.775 l 178.894,16.754 c 22.507,2.11 34.503,-25.855 17.473,-40.72 L 611.939,-245.515 c -11.442,-9.979 -10.42,-28.056 2.065,-36.691 l 147.811,-102.157 c 18.593,-12.848 9.807,-41.99 -12.79,-42.425 l -179.62,-3.464 c -15.176,-0.289 -26.019,-14.8 -22.002,-29.436 l 47.566,-173.262 c 5.985,-21.791 -19.478,-38.472 -37.058,-24.282 l -139.839,112.814 c -11.815,9.534 -29.443,5.393 -35.778,-8.408 l -74.936,-163.298 c -9.424,-20.546 -39.646,-16.949 -43.998,5.226 l -34.609,176.307 c -2.926,14.9 -19.094,23.049 -32.815,16.553 L 33.562,-594.964 c -20.423,-9.672 -41.262,12.499 -30.348,32.286 l 86.816,157.313 c 7.34,13.29 0.194,29.933 -14.493,33.765 l -173.835,45.442 c -21.867,5.71 -23.583,36.1 -2.494,44.243 l 167.618,64.702 c 14.163,5.464 19.386,22.806 10.605,35.188 L -26.526,-35.481 C -39.601,-17.065 -21.381,7.31 0,0 Z"
                 style="fill:none;stroke:url(#linearGradient82);stroke-width:0.35;stroke-linecap:butt;stroke-linejoin:miter;stroke-miterlimit:10;stroke-dasharray:none;stroke-opacity:1"
                 id="path84" /></g><g
               id="g86"
               transform="translate(-392.8398,59.3272)"><path
                 d="m 0,0 170.979,-55.204 c 14.45,-4.663 29.417,5.518 30.381,20.667 l 11.439,179.315 c 1.444,22.556 30.937,30.04 42.949,10.896 L 351.24,3.477 c 8.072,-12.859 26.082,-14.683 36.566,-3.698 l 124.016,130.007 c 15.602,16.353 43.007,3.119 39.9,-19.262 L 527.045,-67.453 c -2.082,-15.038 10.552,-28.012 25.636,-26.334 l 178.573,19.871 c 22.465,2.496 34.952,-25.254 18.182,-40.401 L 616.141,-234.792 c -11.26,-10.183 -9.928,-28.231 2.714,-36.646 l 149.568,-99.561 c 18.812,-12.522 10.543,-41.809 -12.046,-42.641 l -179.552,-6.603 c -15.166,-0.557 -25.757,-15.252 -21.485,-29.815 l 50.586,-172.418 c 6.358,-21.685 -18.795,-38.806 -36.631,-24.923 l -141.794,110.355 c -11.979,9.32 -29.529,4.867 -35.621,-9.033 l -72.071,-164.577 c -9.061,-20.703 -39.341,-17.645 -44.083,4.452 l -37.684,175.678 c -3.182,14.84 -19.489,22.714 -33.095,15.98 L 43.939,-594.298 c -20.255,-10.034 -41.479,11.769 -30.91,31.751 l 84.06,158.801 c 7.102,13.41 -0.331,29.927 -15.081,33.512 l -174.6,42.397 c -21.96,5.332 -24.204,35.681 -3.269,44.186 l 166.464,67.614 c 14.061,5.718 18.985,23.139 9.985,35.366 L -25.907,-35.957 C -39.297,-17.748 -21.504,6.943 0,0 Z"
                 style="fill:none;stroke:url(#linearGradient96);stroke-width:0.35;stroke-linecap:butt;stroke-linejoin:miter;stroke-miterlimit:10;stroke-dasharray:none;stroke-opacity:1"
                 id="path98" /></g><g
               id="g100"
               transform="translate(-397.5456,53.4859)"><path
                 d="m 0,0 171.919,-52.213 c 14.52,-4.409 29.313,6.034 30.02,21.201 l 8.3,179.482 c 1.044,22.576 30.412,30.568 42.752,11.645 L 351.127,9.609 c 8.292,-12.719 26.337,-14.22 36.62,-3.054 L 509.479,138.71 c 15.307,16.625 42.945,3.873 40.233,-18.564 L 528.147,-58.235 c -1.823,-15.071 11.032,-27.826 26.092,-25.88 l 178.202,22.989 c 22.415,2.889 35.386,-24.639 18.885,-40.087 L 620.145,-223.994 c -11.08,-10.373 -9.437,-28.407 3.348,-36.589 l 151.287,-96.932 c 19.031,-12.197 11.272,-41.622 -11.295,-42.849 l -179.414,-9.751 c -15.155,-0.826 -25.481,-15.702 -20.961,-30.186 l 53.583,-171.504 c 6.739,-21.573 -18.119,-39.121 -36.196,-25.558 l -143.696,107.866 c -12.138,9.114 -29.617,4.354 -35.458,-9.65 l -69.188,-165.818 c -8.707,-20.856 -39.024,-18.326 -44.156,3.692 l -40.738,174.994 c -3.44,14.781 -19.883,22.365 -33.369,15.401 L 54.306,-593.442 c -20.075,-10.379 -41.676,11.048 -31.457,31.205 l 81.272,160.249 c 6.87,13.538 -0.856,29.922 -15.659,33.239 L -86.853,-329.4 c -22.054,4.955 -24.82,35.256 -4.038,44.123 l 165.261,70.515 c 13.962,5.957 18.58,23.464 9.367,35.53 L -25.271,-36.395 C -38.985,-18.436 -21.626,6.563 0,0 Z"
                 style="fill:none;stroke:url(#linearGradient110);stroke-width:0.35;stroke-linecap:butt;stroke-linejoin:miter;stroke-miterlimit:10;stroke-dasharray:none;stroke-opacity:1"
                 id="path112" /></g><g
               id="g114"
               transform="translate(-402.1718,47.5525)"><path
                 d="m 0,0 172.809,-49.207 c 14.596,-4.16 29.209,6.55 29.645,21.722 l 5.172,179.6 c 0.652,22.59 29.874,31.094 42.543,12.378 L 350.922,15.725 c 8.513,-12.563 26.58,-13.757 36.668,-2.418 l 119.396,134.257 c 15.02,16.889 42.869,4.626 40.545,-17.861 L 529.085,-49.011 c -1.558,-15.096 11.518,-27.632 26.54,-25.42 l 177.762,26.087 c 22.365,3.283 35.812,-24.017 19.585,-39.746 L 623.959,-213.144 c -10.899,-10.562 -8.932,-28.566 3.982,-36.53 l 152.947,-94.281 c 19.235,-11.859 11.991,-41.414 -10.547,-43.029 l -179.2,-12.87 c -15.138,-1.087 -25.207,-16.139 -20.43,-30.549 l 56.57,-170.542 c 7.111,-21.453 -17.431,-39.434 -35.741,-26.184 l -145.553,105.338 c -12.295,8.894 -29.684,3.838 -35.287,-10.272 l -66.283,-167.001 c -8.338,-21.007 -38.705,-19.008 -44.212,2.919 l -43.796,174.261 c -3.697,14.722 -20.271,22.024 -33.627,14.809 L 64.648,-592.396 c -19.886,-10.731 -41.865,10.321 -31.995,30.651 l 78.46,161.64 c 6.632,13.657 -1.372,29.895 -16.238,32.966 l -175.971,36.278 c -22.131,4.564 -25.432,34.816 -4.805,44.046 l 164.005,73.382 c 13.854,6.202 18.16,23.787 8.748,35.693 L -24.634,-36.834 C -38.661,-19.11 -21.741,6.19 0,0 Z"
                 style="fill:none;stroke:url(#linearGradient124);stroke-width:0.35;stroke-linecap:butt;stroke-linejoin:miter;stroke-miterlimit:10;stroke-dasharray:none;stroke-opacity:1"
                 id="path126" /></g><g
               id="g128"
               transform="translate(-406.734,41.5397)"><path
                 d="m 0,0 173.639,-46.177 c 14.672,-3.897 29.085,7.057 29.265,22.233 l 2.035,179.662 c 0.254,22.596 29.322,31.618 42.319,13.124 L 350.588,21.857 c 8.727,-12.415 26.821,-13.294 36.709,-1.774 l 117.041,136.32 c 14.726,17.147 42.786,5.371 40.85,-17.152 l -15.33,-179.017 c -1.293,-15.122 11.996,-27.418 26.98,-24.954 l 177.287,29.19 c 22.3,3.674 36.222,-23.384 20.277,-39.399 L 627.588,-202.217 c -10.718,-10.752 -8.434,-28.72 4.629,-36.457 l 154.576,-91.59 c 19.438,-11.521 12.717,-41.199 -9.792,-43.216 l -178.97,-16.001 c -15.121,-1.349 -24.919,-16.574 -19.887,-30.897 l 59.537,-169.525 c 7.49,-21.327 -16.743,-39.734 -35.28,-26.803 l -147.37,102.78 c -12.447,8.681 -29.75,3.32 -35.096,-10.888 l -63.36,-168.132 c -7.971,-21.144 -38.368,-19.679 -44.263,2.141 l -46.825,173.465 c -3.961,14.655 -20.65,21.663 -33.879,14.225 L 74.981,-591.173 c -19.698,-11.083 -42.032,9.588 -32.526,30.091 l 75.633,162.978 c 6.387,13.77 -1.896,29.876 -16.816,32.679 l -176.577,33.205 c -22.21,4.174 -26.038,34.37 -5.578,43.961 l 162.699,76.238 c 13.74,6.44 17.747,24.104 8.125,35.834 L -23.986,-37.244 C -38.316,-19.774 -21.84,5.805 0,0 Z"
                 style="fill:none;stroke:url(#linearGradient138);stroke-width:0.35;stroke-linecap:butt;stroke-linejoin:miter;stroke-miterlimit:10;stroke-dasharray:none;stroke-opacity:1"
                 id="path140" /></g><g
               id="g142"
               transform="translate(-411.2181,35.4489)"><path
                 d="m 0,0 174.42,-43.144 c 14.734,-3.651 28.96,7.563 28.87,22.743 l -1.105,179.673 c -0.136,22.596 28.765,32.121 42.088,13.863 L 350.157,27.967 c 8.946,-12.26 27.047,-12.819 36.729,-1.141 l 114.647,138.338 c 14.42,17.403 42.677,6.114 41.147,-16.435 L 530.483,-30.528 c -1.028,-15.147 12.473,-27.204 27.412,-24.481 l 176.748,32.279 c 22.23,4.058 36.627,-22.758 20.955,-39.039 L 631.029,-191.237 c -10.524,-10.94 -7.932,-28.866 5.259,-36.371 l 156.153,-88.883 c 19.641,-11.182 13.435,-40.976 -9.039,-43.374 l -178.663,-19.118 c -15.097,-1.616 -24.63,-17.009 -19.352,-31.239 l 62.479,-168.46 c 7.861,-21.193 -16.049,-40.025 -34.805,-27.42 l -149.143,100.196 c -12.597,8.469 -29.802,2.804 -34.898,-11.494 l -60.421,-169.212 c -7.596,-21.287 -38.023,-20.344 -44.292,1.371 l -49.844,172.621 c -4.217,14.582 -21.028,21.301 -34.13,13.627 L 85.291,-589.775 c -19.497,-11.42 -42.2,8.855 -33.042,29.518 l 72.773,164.279 c 6.15,13.876 -2.417,29.828 -17.377,32.379 l -177.133,30.115 c -22.28,3.791 -26.634,33.904 -6.342,43.855 l 161.347,79.068 c 13.626,6.679 17.322,24.407 7.501,35.977 L -23.316,-37.658 C -37.964,-20.445 -21.933,5.427 0,0 Z"
                 style="fill:none;stroke:url(#linearGradient152);stroke-width:0.35;stroke-linecap:butt;stroke-linejoin:miter;stroke-miterlimit:10;stroke-dasharray:none;stroke-opacity:1"
                 id="path154" /></g><g
               id="g156"
               transform="translate(-415.61,29.2813)"><path
                 d="m 0,0 175.149,-40.095 c 14.795,-3.39 28.821,8.069 28.463,23.239 l -4.239,179.627 c -0.527,22.595 28.201,32.616 41.836,14.593 L 349.605,34.073 c 9.153,-12.107 27.268,-12.352 36.748,-0.493 l 112.215,140.324 c 14.12,17.652 42.566,6.856 41.428,-15.707 l -9.069,-179.453 c -0.765,-15.159 12.95,-26.991 27.829,-23.996 l 176.161,35.356 c 22.16,4.442 37.022,-22.11 21.639,-38.671 L 634.258,-180.199 c -10.337,-11.121 -7.43,-28.997 5.889,-36.27 l 157.678,-86.144 c 19.836,-10.838 14.144,-40.734 -8.28,-43.525 l -178.292,-22.237 c -15.067,-1.876 -24.322,-17.436 -18.803,-31.579 l 65.415,-167.34 c 8.232,-21.046 -15.349,-40.295 -34.316,-28.021 l -150.878,97.581 c -12.747,8.241 -29.847,2.281 -34.701,-12.101 l -57.451,-170.24 c -7.229,-21.41 -37.657,-20.999 -44.299,0.597 l -52.851,171.727 c -4.465,14.503 -21.392,20.928 -34.36,13.038 l -153.445,-93.49 c -19.302,-11.764 -42.345,8.117 -33.556,28.931 l 69.896,165.528 c 5.906,13.989 -2.938,29.781 -17.945,32.072 l -177.631,27.016 c -22.344,3.401 -27.23,33.437 -7.105,43.736 l 159.941,81.865 c 13.512,6.916 16.896,24.708 6.864,36.102 L -22.674,-38.075 C -37.605,-21.108 -22.033,5.042 0,0 Z"
                 style="fill:none;stroke:url(#linearGradient166);stroke-width:0.35;stroke-linecap:butt;stroke-linejoin:miter;stroke-miterlimit:10;stroke-dasharray:none;stroke-opacity:1"
                 id="path168" /></g><g
               id="g170"
               transform="translate(-419.9377,23.0343)"><path
                 d="m 0,0 175.813,-37.031 c 14.857,-3.128 28.676,8.567 28.055,23.734 L 196.5,166.228 c -0.93,22.58 27.631,33.104 41.571,15.322 L 348.955,40.17 c 9.365,-11.946 27.472,-11.872 36.746,0.146 l 109.752,142.257 c 13.806,17.9 42.441,7.597 41.696,-14.994 l -5.927,-179.57 c -0.501,-15.171 13.419,-26.756 28.246,-23.51 L 734.986,2.927 c 22.081,4.833 37.396,-21.458 22.313,-38.282 L 637.325,-169.104 c -10.135,-11.301 -6.921,-29.121 6.526,-36.162 l 159.157,-83.382 c 20.025,-10.487 14.852,-40.477 -7.521,-43.661 l -177.895,-25.34 c -15.028,-2.142 -24.021,-17.855 -18.248,-31.897 l 68.326,-166.171 c 8.595,-20.906 -14.644,-40.557 -33.828,-28.623 l -152.553,94.928 c -12.89,8.023 -29.877,1.761 -34.475,-12.705 l -54.479,-171.218 c -6.855,-21.539 -37.284,-21.66 -44.306,-0.177 l -55.838,170.779 c -4.722,14.429 -21.756,20.554 -34.582,12.428 L 105.82,-586.448 c -19.095,-12.093 -42.483,7.374 -34.057,28.346 l 66.997,166.718 c 5.663,14.088 -3.459,29.733 -18.498,31.751 l -178.078,23.915 c -22.4,3.006 -27.804,32.952 -7.867,43.602 l 158.486,84.65 c 13.391,7.148 16.459,24.995 6.237,36.209 L -21.999,-38.468 C -37.225,-21.762 -22.119,4.658 0,0 Z"
                 style="fill:none;stroke:url(#linearGradient180);stroke-width:0.35;stroke-linecap:butt;stroke-linejoin:miter;stroke-miterlimit:10;stroke-dasharray:none;stroke-opacity:1"
                 id="path182" /></g><g
               id="g184"
               transform="translate(-424.1796,16.7029)"><path
                 d="m 0,0 176.433,-33.956 c 14.904,-2.869 28.524,9.071 27.642,24.221 l -10.506,179.366 c -1.32,22.566 27.04,33.582 41.299,16.042 L 348.2,46.25 c 9.57,-11.778 27.676,-11.392 36.737,0.791 l 107.248,144.158 c 13.494,18.134 42.303,8.337 41.956,-14.26 L 531.346,-2.714 c -0.237,-15.181 13.879,-26.514 28.648,-23.011 L 734.82,15.764 c 21.988,5.222 37.769,-20.806 22.966,-37.889 L 640.16,-157.945 c -9.942,-11.475 -6.407,-29.237 7.154,-36.048 l 160.585,-80.588 c 20.198,-10.138 15.558,-40.207 -6.758,-43.79 l -177.398,-28.433 c -14.983,-2.401 -23.706,-18.274 -17.687,-32.208 l 71.212,-164.97 c 8.957,-20.752 -13.925,-40.804 -33.321,-29.201 l -154.182,92.251 c -13.026,7.797 -29.907,1.239 -34.257,-13.303 l -51.476,-172.143 c -6.474,-21.66 -36.898,-22.307 -44.299,-0.951 l -58.807,169.777 c -4.962,14.343 -22.111,20.173 -34.796,11.826 l -150.092,-98.779 c -18.88,-12.428 -42.607,6.631 -34.542,27.748 l 64.081,167.857 c 5.412,14.179 -3.972,29.666 -19.058,31.423 l -178.461,20.813 c -22.451,2.617 -28.377,32.466 -8.628,43.454 l 156.985,87.396 c 13.263,7.384 16.021,25.281 5.602,36.321 L -21.327,-38.832 C -36.841,-22.394 -22.198,4.281 0,0 Z"
                 style="fill:none;stroke:url(#linearGradient194);stroke-width:0.35;stroke-linecap:butt;stroke-linejoin:miter;stroke-miterlimit:10;stroke-dasharray:none;stroke-opacity:1"
                 id="path196" /></g><g
               id="g198"
               transform="translate(-428.3076,10.2897)"><path
                 d="m 0,0 177.003,-30.865 c 14.951,-2.608 28.358,9.56 27.207,24.7 l -13.632,179.144 c -1.713,22.529 26.452,34.047 41.013,16.761 L 347.339,52.313 c 9.775,-11.61 27.874,-10.905 36.722,1.429 l 104.715,146.007 c 13.174,18.36 42.149,9.076 42.193,-13.522 L 531.307,6.556 c 0.026,-15.179 14.34,-26.274 29.05,-22.513 l 174.065,44.53 c 21.897,5.596 38.127,-20.142 23.631,-37.481 L 642.821,-146.759 c -9.734,-11.648 -5.899,-29.347 7.788,-35.913 l 161.975,-77.776 c 20.373,-9.788 16.258,-39.93 -5.994,-43.905 l -176.889,-31.525 c -14.944,-2.667 -23.383,-18.684 -17.126,-32.518 l 74.085,-163.692 c 9.318,-20.584 -13.214,-41.044 -32.813,-29.78 l -155.767,89.55 c -13.154,7.566 -29.924,0.72 -34.017,-13.906 l -48.471,-173.018 c -6.095,-21.768 -36.506,-22.946 -44.278,-1.723 L 309.55,-492.24 c -5.217,14.256 -22.466,19.778 -34.995,11.212 l -148.33,-101.366 c -18.657,-12.756 -42.716,5.89 -35.025,27.136 l 61.141,168.951 c 5.163,14.269 -4.49,29.59 -19.596,31.09 l -178.814,17.684 c -22.492,2.224 -28.935,31.968 -9.388,43.307 l 155.436,90.129 c 13.128,7.614 15.583,25.554 4.969,36.406 L -20.653,-39.211 C -36.447,-23.047 -22.26,3.878 0,0 Z"
                 style="fill:none;stroke:url(#linearGradient208);stroke-width:0.35;stroke-linecap:butt;stroke-linejoin:miter;stroke-miterlimit:10;stroke-dasharray:none;stroke-opacity:1"
                 id="path210" /></g><g
               id="g212"
               transform="translate(-432.3112,3.7599)"><path
                 d="m 0,0 177.515,-27.779 c 14.999,-2.349 28.186,10.056 26.775,25.165 l -16.762,178.899 c -2.11,22.508 25.856,34.504 40.721,17.474 L 346.373,58.374 c 9.979,-11.442 28.056,-10.42 36.691,2.065 l 102.157,147.81 c 12.848,18.594 41.991,9.807 42.425,-12.79 L 531.112,15.826 C 531.4,0.65 545.912,-10.193 560.548,-6.176 L 733.81,41.39 c 21.791,5.985 38.471,-19.478 24.281,-37.059 L 645.278,-135.507 c -9.534,-11.815 -5.393,-29.443 8.408,-35.778 l 163.298,-74.936 c 20.545,-9.424 16.949,-39.647 -5.226,-43.998 l -176.3,-34.616 c -14.9,-2.925 -23.048,-19.094 -16.553,-32.814 l 76.926,-162.374 c 9.672,-20.424 -12.499,-41.262 -32.286,-30.349 l -157.313,86.817 c -13.289,7.34 -29.933,0.193 -33.765,-14.494 l -45.435,-173.827 c -5.71,-21.867 -36.1,-23.583 -44.243,-2.493 l -64.702,167.618 c -5.464,14.162 -22.806,19.385 -35.189,10.604 l -146.53,-103.956 c -18.429,-13.075 -42.811,5.136 -35.494,26.525 l 58.183,169.995 c 4.913,14.36 -5.008,29.513 -20.138,30.735 l -179.09,14.57 c -22.528,1.836 -29.491,31.455 -10.139,43.138 l 153.84,92.824 c 12.993,7.842 15.132,25.825 4.336,36.489 L -19.954,-39.559 C -36.035,-23.676 -22.332,3.495 0,0 Z"
                 style="fill:none;stroke:url(#linearGradient222);stroke-width:0.35;stroke-linecap:butt;stroke-linejoin:miter;stroke-miterlimit:10;stroke-dasharray:none;stroke-opacity:1"
                 id="path224" /></g><g
               id="g226"
               transform="translate(-436.2073,-2.8593)"><path
                 d="m 0,0 177.977,-24.677 c 15.038,-2.082 28.012,10.552 26.333,25.636 l -19.876,178.565 c -2.496,22.465 25.254,34.953 40.4,18.183 L 345.309,64.411 c 10.183,-11.26 28.232,-9.927 36.647,2.715 l 99.56,149.568 c 12.523,18.812 41.81,10.543 42.641,-12.046 L 530.768,25.089 C 531.326,9.923 546.02,-0.668 560.583,3.604 L 732.994,54.182 C 754.68,60.54 771.801,35.387 757.918,17.551 L 647.563,-124.243 c -9.32,-11.979 -4.867,-29.529 9.033,-35.62 l 164.584,-72.078 c 20.704,-9.062 17.645,-39.342 -4.451,-44.083 l -175.687,-37.677 c -14.84,-3.183 -22.713,-19.49 -15.979,-33.096 l 79.754,-161.007 c 10.033,-20.256 -11.769,-41.48 -31.752,-30.911 l -158.8,84.06 c -13.41,7.102 -29.927,-0.331 -33.512,-15.081 l -42.397,-174.599 c -5.332,-21.961 -35.681,-24.205 -44.186,-3.27 l -67.614,166.464 c -5.718,14.062 -23.139,18.986 -35.366,9.985 L 146.474,-577.637 c -18.201,-13.396 -42.892,4.397 -35.949,25.901 l 55.204,170.979 c 4.663,14.45 -5.518,29.417 -20.667,30.381 l -179.315,11.439 c -22.555,1.444 -30.04,30.937 -10.896,42.949 l 152.197,95.492 c 12.859,8.072 14.683,26.082 3.698,36.566 L -19.261,-39.914 C -35.616,-24.298 -22.388,3.099 0,0 Z"
                 style="fill:none;stroke:url(#linearGradient236);stroke-width:0.35;stroke-linecap:butt;stroke-linejoin:miter;stroke-miterlimit:10;stroke-dasharray:none;stroke-opacity:1"
                 id="path238" /></g><g
               id="g240"
               transform="translate(-439.9727,-9.5873)"><path
                 d="m 0,0 178.381,-21.565 c 15.071,-1.823 27.826,11.031 25.88,26.091 l -22.989,178.202 c -2.889,22.415 24.639,35.387 40.087,18.885 L 344.14,70.432 c 10.373,-11.079 28.407,-9.436 36.589,3.348 l 96.932,151.288 c 12.197,19.031 41.622,11.271 42.849,-11.296 L 530.247,34.357 C 531.073,19.202 545.949,8.876 560.433,13.396 L 731.937,66.98 c 21.573,6.738 39.121,-18.12 25.558,-36.196 L 649.629,-112.912 c -9.114,-12.139 -4.355,-29.618 9.65,-35.458 l 165.818,-69.189 c 20.856,-8.707 18.326,-39.023 -3.692,-44.155 l -174.994,-40.739 c -14.781,-3.44 -22.365,-19.883 -15.401,-33.369 l 82.549,-159.587 c 10.38,-20.075 -11.047,-41.676 -31.204,-31.457 l -160.249,81.272 c -13.538,6.87 -29.922,-0.856 -33.24,-15.659 l -39.334,-175.314 c -4.955,-22.053 -35.256,-24.819 -44.123,-4.038 l -70.515,165.262 c -5.957,13.961 -23.464,18.579 -35.53,9.366 L 156.527,-574.984 c -17.967,-13.709 -42.958,3.645 -36.395,25.27 l 52.213,171.92 c 4.409,14.519 -6.034,29.313 -21.201,30.019 l -179.476,8.308 c -22.576,1.044 -30.568,30.412 -11.645,42.752 l 150.507,98.135 c 12.718,8.293 14.219,26.338 3.053,36.621 L -18.572,-40.227 C -35.19,-24.913 -22.445,2.718 0,0 Z"
                 style="fill:none;stroke:url(#linearGradient250);stroke-width:0.35;stroke-linecap:butt;stroke-linejoin:miter;stroke-miterlimit:10;stroke-dasharray:none;stroke-opacity:1"
                 id="path252" /></g><g
               id="g254"
               transform="translate(-443.6241,-16.3972)"><path
                 d="m 0,0 178.727,-18.445 c 15.097,-1.558 27.633,11.518 25.42,26.54 l -26.094,177.768 c -3.283,22.365 24.017,35.813 39.746,19.586 L 342.86,76.429 c 10.562,-10.899 28.567,-8.932 36.531,3.982 l 94.281,152.947 c 11.858,19.235 41.414,11.991 43.029,-10.547 L 529.564,43.604 c 1.087,-15.139 16.139,-25.208 30.549,-20.431 l 170.542,56.57 c 21.454,7.111 39.434,-17.43 26.185,-35.741 L 651.501,-101.551 c -8.894,-12.295 -3.838,-29.683 10.273,-35.287 l 167.001,-66.282 c 21.007,-8.338 19.007,-38.706 -2.92,-44.213 l -174.26,-43.796 c -14.722,-3.697 -22.025,-20.271 -14.81,-33.627 l 85.32,-158.12 c 10.731,-19.886 -10.321,-41.865 -30.651,-31.995 l -161.64,78.461 c -13.657,6.631 -29.895,-1.373 -32.966,-16.238 l -36.27,-175.978 c -4.564,-22.131 -34.816,-25.432 -44.046,-4.805 l -73.382,164.005 c -6.203,13.854 -23.787,18.16 -35.693,8.748 l -140.92,-111.488 c -17.725,-14.026 -43.025,2.894 -36.834,24.635 l 49.206,172.808 c 4.16,14.597 -6.55,29.209 -21.721,29.646 l -179.593,5.165 c -22.59,0.653 -31.093,29.875 -12.378,42.543 l 148.769,100.753 c 12.563,8.513 13.757,26.58 2.417,36.669 L -17.855,-40.538 C -34.751,-25.526 -22.473,2.325 0,0 Z"
                 style="fill:none;stroke:url(#linearGradient264);stroke-width:0.35;stroke-linecap:butt;stroke-linejoin:miter;stroke-miterlimit:10;stroke-dasharray:none;stroke-opacity:1"
                 id="path266" /></g><g
               id="g268"
               transform="translate(-447.1461,-23.3018)"><path
                 d="m 0,0 179.018,-15.329 c 15.121,-1.294 27.418,11.995 24.953,26.979 l -29.189,177.287 c -3.674,22.3 23.383,36.223 39.399,20.277 L 341.469,82.401 c 10.751,-10.718 28.72,-8.435 36.457,4.628 l 91.59,154.576 c 11.52,19.438 41.198,12.717 43.216,-9.792 L 528.719,52.842 c 1.348,-15.121 16.574,-24.919 30.897,-19.887 l 169.525,59.537 c 21.326,7.49 39.733,-16.743 26.802,-35.28 L 653.171,-90.165 c -8.681,-12.446 -3.32,-29.75 10.888,-35.096 l 168.132,-63.36 c 21.144,-7.97 19.679,-38.367 -2.141,-44.262 L 656.571,-279.71 c -14.655,-3.961 -21.663,-20.65 -14.225,-33.879 l 88.079,-156.617 c 11.083,-19.699 -9.588,-42.033 -30.091,-32.527 L 537.355,-427.1 c -13.77,6.387 -29.876,-1.896 -32.679,-16.815 l -33.205,-176.578 c -4.173,-22.209 -34.37,-26.038 -43.96,-5.578 l -76.238,162.7 c -6.441,13.739 -24.105,17.747 -35.835,8.124 L 176.495,-569.174 c -17.477,-14.323 -43.063,2.145 -37.258,23.985 l 46.177,173.639 c 3.898,14.672 -7.057,29.085 -22.233,29.265 l -179.654,2.029 c -22.596,0.254 -31.618,29.322 -13.124,42.318 l 146.985,103.33 c 12.415,8.727 13.294,26.822 1.774,36.71 l -136.32,117.04 C -34.298,-26.123 -22.523,1.937 0,0 Z"
                 style="fill:none;stroke:url(#linearGradient278);stroke-width:0.35;stroke-linecap:butt;stroke-linejoin:miter;stroke-miterlimit:10;stroke-dasharray:none;stroke-opacity:1"
                 id="path280" /></g><g
               id="g282"
               transform="translate(-450.5541,-30.2883)"><path
                 d="m 0,0 179.256,-12.197 c 15.148,-1.029 27.205,12.472 24.481,27.411 l -32.278,176.749 c -4.058,22.23 22.757,36.627 39.039,20.955 L 339.981,88.336 c 10.94,-10.524 28.866,-7.932 36.371,5.259 l 88.883,156.153 c 11.182,19.641 40.976,13.435 43.374,-9.039 L 527.726,62.06 c 1.616,-15.097 17.009,-24.63 31.238,-19.352 l 168.461,62.479 c 21.193,7.861 40.025,-16.049 27.419,-34.805 L 654.648,-78.761 c -8.468,-12.597 -2.804,-29.802 11.495,-34.898 l 169.212,-60.421 c 21.287,-7.596 20.343,-38.023 -1.372,-44.292 l -172.62,-49.844 c -14.582,-4.217 -21.302,-21.028 -13.627,-34.13 l 90.79,-155.048 c 11.419,-19.497 -8.856,-42.2 -29.519,-33.042 l -164.279,72.773 c -13.876,6.15 -29.828,-2.417 -32.379,-17.377 l -30.115,-177.133 c -3.79,-22.281 -33.903,-26.634 -43.855,-6.342 l -79.068,161.347 c -6.679,13.625 -24.406,17.322 -35.976,7.501 L 186.41,-566.016 c -17.229,-14.634 -43.093,1.39 -37.674,23.329 l 43.145,174.42 c 3.65,14.734 -7.564,28.96 -22.736,28.864 l -179.674,-1.091 c -22.596,-0.136 -32.121,28.765 -13.863,42.088 l 145.167,105.884 c 12.261,8.946 12.82,27.047 1.141,36.729 L -16.422,-41.146 C -33.831,-26.734 -22.543,1.537 0,0 Z"
                 style="fill:none;stroke:url(#linearGradient292);stroke-width:0.35;stroke-linecap:butt;stroke-linejoin:miter;stroke-miterlimit:10;stroke-dasharray:none;stroke-opacity:1"
                 id="path294" /></g><g
               id="g296"
               transform="translate(-453.8327,-37.3694)"><path
                 d="m 0,0 179.453,-9.069 c 15.159,-0.765 26.99,12.95 23.995,27.829 l -35.356,176.161 c -4.442,22.159 22.111,37.022 38.671,21.638 L 338.388,94.268 c 11.121,-10.336 28.997,-7.429 36.27,5.889 l 86.144,157.678 c 10.838,19.837 40.734,14.144 43.525,-8.28 l 22.231,-178.3 c 1.876,-15.066 17.435,-24.321 31.579,-18.802 l 167.339,65.415 c 21.046,8.231 40.295,-15.349 28.021,-34.316 L 655.923,-67.319 c -8.242,-12.747 -2.282,-29.846 12.101,-34.701 l 170.24,-57.451 c 21.41,-7.229 20.999,-37.657 -0.597,-44.298 L 665.94,-256.62 c -14.503,-4.466 -20.928,-21.392 -13.038,-34.36 l 93.483,-153.439 c 11.764,-19.302 -8.118,-42.346 -28.932,-33.557 l -165.513,69.884 c -13.989,5.906 -29.781,-2.938 -32.071,-17.946 l -27.016,-177.63 c -3.402,-22.344 -33.438,-27.23 -43.736,-7.105 l -81.865,159.941 c -6.917,13.511 -24.708,16.896 -36.103,6.864 L 196.258,-562.672 c -16.968,-14.93 -43.117,0.642 -38.068,22.668 l 40.095,175.149 c 3.39,14.796 -8.069,28.822 -23.239,28.463 L -4.58,-340.631 c -22.596,-0.527 -32.617,28.201 -14.593,41.837 l 143.29,108.395 c 12.107,9.153 12.352,27.268 0.493,36.748 L -15.714,-41.436 C -33.366,-27.316 -22.563,1.138 0,0 Z"
                 style="fill:none;stroke:url(#linearGradient306);stroke-width:0.35;stroke-linecap:butt;stroke-linejoin:miter;stroke-miterlimit:10;stroke-dasharray:none;stroke-opacity:1"
                 id="path308" /></g><g
               id="g310"
               transform="translate(-456.9756,-44.5375)"><path
                 d="m 0,0 179.578,-5.934 c 15.17,-0.5 26.755,13.419 23.51,28.246 l -38.435,175.511 c -4.833,22.081 21.458,37.396 38.282,22.313 L 336.684,100.162 c 11.301,-10.135 29.121,-6.921 36.162,6.526 l 83.382,159.157 c 10.487,20.025 40.477,14.852 43.661,-7.522 L 525.227,80.442 c 2.142,-15.027 17.855,-24.02 31.897,-18.248 l 166.172,68.327 c 20.906,8.594 40.557,-14.644 28.622,-33.829 L 656.991,-55.86 c -8.023,-12.89 -1.761,-29.877 12.705,-34.475 l 171.218,-54.479 c 21.538,-6.855 21.66,-37.284 0.177,-44.306 l -170.779,-55.839 c -14.43,-4.721 -20.554,-21.755 -12.429,-34.581 l 96.144,-151.789 c 12.093,-19.095 -7.374,-42.483 -28.346,-34.057 l -166.718,66.997 c -14.088,5.662 -29.734,-3.459 -31.752,-18.498 l -23.914,-178.078 c -3.006,-22.401 -32.952,-27.804 -43.603,-7.867 l -84.65,158.486 c -7.147,13.391 -24.995,16.458 -36.208,6.237 L 206.04,-559.156 c -16.706,-15.226 -43.119,-0.112 -38.461,22.007 l 37.031,175.813 c 3.128,14.856 -8.568,28.676 -23.735,28.055 L 1.358,-340.655 c -22.58,-0.931 -33.104,27.631 -15.321,41.57 l 141.38,110.884 c 11.945,9.365 11.872,27.472 -0.146,36.746 L -14.986,-41.703 C -32.886,-27.897 -22.591,0.745 0,0 Z"
                 style="fill:none;stroke:url(#linearGradient320);stroke-width:0.35;stroke-linecap:butt;stroke-linejoin:miter;stroke-miterlimit:10;stroke-dasharray:none;stroke-opacity:1"
                 id="path322" /></g><g
               id="g324"
               transform="translate(-460.0045,-51.7874)"><path
                 d="m 0,0 179.653,-2.795 c 15.181,-0.237 26.514,13.879 23.011,28.647 l -41.488,174.813 c -5.222,21.988 20.807,37.769 37.889,22.965 l 135.82,-117.626 c 11.476,-9.941 29.237,-6.406 36.049,7.155 l 80.588,160.584 c 10.137,20.199 40.207,15.559 43.79,-6.757 L 523.751,89.595 c 2.4,-14.983 18.273,-23.705 32.208,-17.687 l 164.962,71.219 c 20.752,8.957 40.804,-13.925 29.201,-33.321 L 657.871,-44.376 c -7.797,-13.026 -1.239,-29.907 13.303,-34.257 l 172.143,-51.476 c 21.66,-6.475 22.307,-36.898 0.951,-44.299 l -169.776,-58.807 c -14.344,-4.963 -20.174,-22.111 -11.827,-34.796 l 98.779,-150.093 c 12.428,-18.879 -6.631,-42.607 -27.748,-34.541 l -167.857,64.081 c -14.179,5.412 -29.666,-3.972 -31.423,-19.058 L 513.611,-586.09 c -2.618,-22.45 -32.466,-28.377 -43.454,-8.627 l -87.396,156.985 c -7.384,13.263 -25.282,16.02 -36.321,5.602 L 215.779,-555.475 c -16.438,-15.514 -43.107,-0.863 -38.832,21.327 l 33.956,176.434 c 2.868,14.904 -9.072,28.523 -24.222,27.641 L 7.301,-340.58 c -22.565,-1.32 -33.582,27.04 -16.042,41.299 l 139.424,113.332 c 11.777,9.57 11.391,27.676 -0.792,36.737 L -14.266,-41.964 C -32.394,-28.463 -22.605,0.353 0,0 Z"
                 style="fill:none;stroke:url(#linearGradient334);stroke-width:0.35;stroke-linecap:butt;stroke-linejoin:miter;stroke-miterlimit:10;stroke-dasharray:none;stroke-opacity:1"
                 id="path336" /></g></g></g><g
           id="g338"
           transform="translate(189.1866,-36.056)"><path
             d="M 0,0 C -136.172,74.216 -228.51,167.495 -206.245,208.347 -183.98,249.199 -55.544,222.152 80.628,147.935 216.8,73.719 345.236,46.671 367.501,87.524 389.766,128.376 297.427,221.655 161.256,295.871"
             style="fill:none;stroke:url(#linearGradient346);stroke-width:0.5;stroke-linecap:butt;stroke-linejoin:miter;stroke-miterlimit:10;stroke-dasharray:none;stroke-opacity:1"
             id="path348" /></g><g
           id="g350"
           transform="translate(186.499,-40.9872)"><path
             d="M 0,0 C -136.172,74.216 -228.51,167.495 -206.245,208.347 -183.98,249.199 -55.544,222.152 80.628,147.935 216.8,73.719 345.236,46.671 367.501,87.524 389.766,128.376 297.427,221.655 161.256,295.871"
             style="fill:none;stroke:url(#linearGradient358);stroke-width:0.5;stroke-linecap:butt;stroke-linejoin:miter;stroke-miterlimit:10;stroke-dasharray:none;stroke-opacity:1"
             id="path360" /></g><g
           id="g362"
           transform="translate(183.8114,-45.9184)"><path
             d="M 0,0 C -136.172,74.216 -228.51,167.495 -206.245,208.347 -183.98,249.199 -55.544,222.152 80.628,147.935 216.8,73.719 345.236,46.671 367.501,87.524 389.766,128.376 297.427,221.655 161.256,295.871"
             style="fill:none;stroke:url(#linearGradient370);stroke-width:0.5;stroke-linecap:butt;stroke-linejoin:miter;stroke-miterlimit:10;stroke-dasharray:none;stroke-opacity:1"
             id="path372" /></g><g
           id="g374"
           transform="translate(181.1238,-50.8496)"><path
             d="M 0,0 C -136.172,74.216 -228.51,167.495 -206.245,208.347 -183.98,249.199 -55.544,222.152 80.628,147.935 216.8,73.719 345.236,46.671 367.501,87.524 389.766,128.376 297.427,221.655 161.256,295.871"
             style="fill:none;stroke:url(#linearGradient382);stroke-width:0.5;stroke-linecap:butt;stroke-linejoin:miter;stroke-miterlimit:10;stroke-dasharray:none;stroke-opacity:1"
             id="path384" /></g><g
           id="g386"
           transform="translate(178.4362,-55.7807)"><path
             d="M 0,0 C -136.172,74.216 -228.51,167.495 -206.245,208.347 -183.98,249.199 -55.544,222.152 80.628,147.935 216.8,73.719 345.236,46.671 367.501,87.524 389.766,128.376 297.427,221.655 161.256,295.871"
             style="fill:none;stroke:url(#linearGradient394);stroke-width:0.5;stroke-linecap:butt;stroke-linejoin:miter;stroke-miterlimit:10;stroke-dasharray:none;stroke-opacity:1"
             id="path396" /></g><g
           id="g398"
           transform="translate(175.7487,-60.7119)"><path
             d="M 0,0 C -136.172,74.216 -228.51,167.495 -206.245,208.347 -183.98,249.199 -55.544,222.152 80.628,147.935 216.8,73.719 345.236,46.671 367.501,87.524 389.766,128.376 297.427,221.655 161.256,295.871"
             style="fill:none;stroke:url(#linearGradient406);stroke-width:0.5;stroke-linecap:butt;stroke-linejoin:miter;stroke-miterlimit:10;stroke-dasharray:none;stroke-opacity:1"
             id="path408" /></g><g
           id="g410"
           transform="translate(173.0611,-65.6431)"><path
             d="M 0,0 C -136.172,74.216 -228.51,167.495 -206.245,208.347 -183.98,249.199 -55.544,222.152 80.628,147.935 216.8,73.719 345.236,46.671 367.501,87.524 389.766,128.376 297.427,221.655 161.256,295.871"
             style="fill:none;stroke:url(#linearGradient418);stroke-width:0.5;stroke-linecap:butt;stroke-linejoin:miter;stroke-miterlimit:10;stroke-dasharray:none;stroke-opacity:1"
             id="path420" /></g><g
           id="g422"
           transform="translate(170.3735,-70.5743)"><path
             d="M 0,0 C -136.172,74.216 -228.51,167.495 -206.245,208.347 -183.98,249.199 -55.544,222.152 80.628,147.935 216.8,73.719 345.236,46.671 367.501,87.524 389.766,128.376 297.427,221.655 161.256,295.871"
             style="fill:none;stroke:url(#linearGradient430);stroke-width:0.5;stroke-linecap:butt;stroke-linejoin:miter;stroke-miterlimit:10;stroke-dasharray:none;stroke-opacity:1"
             id="path432" /></g><g
           id="g434"
           transform="translate(167.6859,-75.5055)"><path
             d="M 0,0 C -136.172,74.216 -228.51,167.495 -206.245,208.347 -183.98,249.199 -55.544,222.152 80.628,147.935 216.8,73.719 345.236,46.671 367.501,87.524 389.766,128.376 297.427,221.655 161.256,295.871"
             style="fill:none;stroke:url(#linearGradient442);stroke-width:0.5;stroke-linecap:butt;stroke-linejoin:miter;stroke-miterlimit:10;stroke-dasharray:none;stroke-opacity:1"
             id="path444" /></g><g
           id="g446"
           transform="translate(164.9983,-80.4367)"><path
             d="M 0,0 C -136.172,74.216 -228.51,167.495 -206.245,208.347 -183.98,249.199 -55.544,222.152 80.628,147.935 216.8,73.719 345.236,46.671 367.501,87.524 389.766,128.376 297.427,221.655 161.256,295.871"
             style="fill:none;stroke:url(#linearGradient454);stroke-width:0.5;stroke-linecap:butt;stroke-linejoin:miter;stroke-miterlimit:10;stroke-dasharray:none;stroke-opacity:1"
             id="path456" /></g><g
           id="g458"
           transform="translate(162.3107,-85.3678)"><path
             d="M 0,0 C -136.172,74.216 -228.51,167.495 -206.245,208.347 -183.98,249.199 -55.544,222.152 80.628,147.935 216.8,73.719 345.236,46.671 367.501,87.524 389.766,128.376 297.427,221.655 161.256,295.871"
             style="fill:none;stroke:url(#linearGradient466);stroke-width:0.5;stroke-linecap:butt;stroke-linejoin:miter;stroke-miterlimit:10;stroke-dasharray:none;stroke-opacity:1"
             id="path468" /></g><g
           id="g470"
           transform="translate(159.6231,-90.299)"><path
             d="M 0,0 C -136.172,74.216 -228.51,167.495 -206.245,208.347 -183.98,249.199 -55.544,222.152 80.628,147.935 216.8,73.719 345.236,46.671 367.501,87.524 389.766,128.376 297.427,221.655 161.256,295.871"
             style="fill:none;stroke:url(#linearGradient478);stroke-width:0.5;stroke-linecap:butt;stroke-linejoin:miter;stroke-miterlimit:10;stroke-dasharray:none;stroke-opacity:1"
             id="path480" /></g><g
           id="g482"
           transform="translate(156.9355,-95.2302)"><path
             d="M 0,0 C -136.172,74.216 -228.51,167.495 -206.245,208.347 -183.98,249.199 -55.544,222.152 80.628,147.935 216.8,73.719 345.236,46.671 367.501,87.524 389.766,128.376 297.427,221.655 161.256,295.871"
             style="fill:none;stroke:url(#linearGradient490);stroke-width:0.5;stroke-linecap:butt;stroke-linejoin:miter;stroke-miterlimit:10;stroke-dasharray:none;stroke-opacity:1"
             id="path492" /></g><g
           id="g494"
           transform="translate(154.2479,-100.1614)"><path
             d="M 0,0 C -136.172,74.216 -228.51,167.495 -206.245,208.347 -183.98,249.199 -55.544,222.152 80.628,147.935 216.8,73.719 345.236,46.671 367.501,87.524 389.766,128.376 297.427,221.655 161.256,295.871"
             style="fill:none;stroke:url(#linearGradient502);stroke-width:0.5;stroke-linecap:butt;stroke-linejoin:miter;stroke-miterlimit:10;stroke-dasharray:none;stroke-opacity:1"
             id="path504" /></g><g
           id="g506"
           transform="translate(151.5603,-105.0926)"><path
             d="M 0,0 C -136.172,74.216 -228.51,167.495 -206.245,208.347 -183.98,249.199 -55.544,222.152 80.628,147.935 216.8,73.719 345.236,46.671 367.501,87.524 389.766,128.376 297.427,221.655 161.256,295.871"
             style="fill:none;stroke:url(#linearGradient514);stroke-width:0.5;stroke-linecap:butt;stroke-linejoin:miter;stroke-miterlimit:10;stroke-dasharray:none;stroke-opacity:1"
             id="path516" /></g><g
           id="g518"
           transform="translate(148.8727,-110.0238)"><path
             d="M 0,0 C -136.172,74.216 -228.51,167.495 -206.245,208.347 -183.98,249.199 -55.544,222.152 80.628,147.935 216.8,73.719 345.236,46.671 367.501,87.524 389.766,128.376 297.427,221.655 161.256,295.871"
             style="fill:none;stroke:url(#linearGradient526);stroke-width:0.5;stroke-linecap:butt;stroke-linejoin:miter;stroke-miterlimit:10;stroke-dasharray:none;stroke-opacity:1"
             id="path528" /></g><g
           id="g530"
           transform="translate(146.1851,-114.9549)"><path
             d="M 0,0 C -136.172,74.216 -228.51,167.495 -206.245,208.347 -183.98,249.199 -55.544,222.152 80.628,147.935 216.8,73.719 345.236,46.671 367.501,87.524 389.766,128.376 297.427,221.655 161.256,295.871"
             style="fill:none;stroke:url(#linearGradient538);stroke-width:0.5;stroke-linecap:butt;stroke-linejoin:miter;stroke-miterlimit:10;stroke-dasharray:none;stroke-opacity:1"
             id="path540" /></g><g
           id="g542"
           transform="translate(143.4975,-119.8861)"><path
             d="M 0,0 C -136.172,74.216 -228.51,167.495 -206.245,208.347 -183.98,249.199 -55.544,222.152 80.628,147.935 216.8,73.719 345.236,46.671 367.501,87.524 389.766,128.376 297.427,221.655 161.256,295.871"
             style="fill:none;stroke:url(#linearGradient550);stroke-width:0.5;stroke-linecap:butt;stroke-linejoin:miter;stroke-miterlimit:10;stroke-dasharray:none;stroke-opacity:1"
             id="path552" /></g><g
           id="g554"
           transform="translate(140.81,-124.8173)"><path
             d="M 0,0 C -136.172,74.216 -228.51,167.495 -206.245,208.347 -183.98,249.2 -55.544,222.152 80.628,147.936 216.8,73.719 345.236,46.671 367.501,87.524 389.766,128.376 297.427,221.655 161.256,295.871"
             style="fill:none;stroke:url(#linearGradient562);stroke-width:0.5;stroke-linecap:butt;stroke-linejoin:miter;stroke-miterlimit:10;stroke-dasharray:none;stroke-opacity:1"
             id="path564" /></g><g
           id="g566"
           transform="translate(138.1224,-129.7485)"><path
             d="M 0,0 C -136.172,74.216 -228.51,167.495 -206.245,208.347 -183.98,249.2 -55.544,222.152 80.628,147.936 216.8,73.719 345.236,46.671 367.501,87.524 389.766,128.376 297.427,221.655 161.256,295.871"
             style="fill:none;stroke:url(#linearGradient574);stroke-width:0.5;stroke-linecap:butt;stroke-linejoin:miter;stroke-miterlimit:10;stroke-dasharray:none;stroke-opacity:1"
             id="path576" /></g><g
           id="g578"
           transform="translate(135.4348,-134.6797)"><path
             d="M 0,0 C -136.172,74.216 -228.51,167.495 -206.245,208.347 -183.98,249.2 -55.544,222.152 80.628,147.936 216.8,73.719 345.236,46.671 367.501,87.524 389.766,128.376 297.427,221.655 161.256,295.871"
             style="fill:none;stroke:url(#linearGradient586);stroke-width:0.5;stroke-linecap:butt;stroke-linejoin:miter;stroke-miterlimit:10;stroke-dasharray:none;stroke-opacity:1"
             id="path588" /></g><g
           id="g590"
           transform="translate(132.7472,-139.6109)"><path
             d="M 0,0 C -136.172,74.216 -228.51,167.495 -206.245,208.347 -183.98,249.2 -55.544,222.152 80.628,147.936 216.8,73.719 345.236,46.671 367.501,87.524 389.766,128.376 297.427,221.655 161.256,295.871"
             style="fill:none;stroke:url(#linearGradient598);stroke-width:0.5;stroke-linecap:butt;stroke-linejoin:miter;stroke-miterlimit:10;stroke-dasharray:none;stroke-opacity:1"
             id="path600" /></g><g
           id="g602"
           transform="translate(130.0596,-144.5421)"><path
             d="M 0,0 C -136.172,74.216 -228.51,167.495 -206.245,208.347 -183.98,249.2 -55.544,222.152 80.628,147.936 216.8,73.719 345.236,46.671 367.501,87.524 389.766,128.376 297.427,221.655 161.256,295.871"
             style="fill:none;stroke:url(#linearGradient610);stroke-width:0.5;stroke-linecap:butt;stroke-linejoin:miter;stroke-miterlimit:10;stroke-dasharray:none;stroke-opacity:1"
             id="path612" /></g><g
           id="g614"
           transform="translate(127.372,-149.4732)"><path
             d="M 0,0 C -136.172,74.216 -228.51,167.495 -206.245,208.347 -183.98,249.2 -55.544,222.152 80.628,147.936 216.8,73.719 345.236,46.671 367.501,87.524 389.766,128.376 297.427,221.655 161.256,295.871"
             style="fill:none;stroke:url(#linearGradient622);stroke-width:0.5;stroke-linecap:butt;stroke-linejoin:miter;stroke-miterlimit:10;stroke-dasharray:none;stroke-opacity:1"
             id="path624" /></g><g
           id="g626"
           transform="translate(124.6844,-154.4044)"><path
             d="M 0,0 C -136.172,74.216 -228.51,167.495 -206.245,208.347 -183.98,249.2 -55.544,222.152 80.628,147.936 216.8,73.719 345.236,46.671 367.501,87.524 389.766,128.376 297.427,221.655 161.256,295.871"
             style="fill:none;stroke:url(#linearGradient634);stroke-width:0.5;stroke-linecap:butt;stroke-linejoin:miter;stroke-miterlimit:10;stroke-dasharray:none;stroke-opacity:1"
             id="path636" /></g><g
           id="g638"
           transform="translate(121.9968,-159.3356)"><path
             d="M 0,0 C -136.172,74.216 -228.51,167.495 -206.245,208.347 -183.98,249.2 -55.544,222.152 80.628,147.936 216.8,73.719 345.236,46.671 367.501,87.524 389.766,128.376 297.427,221.655 161.256,295.871"
             style="fill:none;stroke:url(#linearGradient646);stroke-width:0.5;stroke-linecap:butt;stroke-linejoin:miter;stroke-miterlimit:10;stroke-dasharray:none;stroke-opacity:1"
             id="path648" /></g><g
           id="g650"
           transform="translate(119.3092,-164.2668)"><path
             d="M 0,0 C -136.172,74.216 -228.51,167.495 -206.245,208.347 -183.98,249.2 -55.544,222.152 80.628,147.936 216.8,73.719 345.236,46.671 367.501,87.524 389.766,128.376 297.427,221.655 161.256,295.871"
             style="fill:none;stroke:url(#linearGradient658);stroke-width:0.5;stroke-linecap:butt;stroke-linejoin:miter;stroke-miterlimit:10;stroke-dasharray:none;stroke-opacity:1"
             id="path660" /></g><g
           id="g662"
           transform="translate(116.6216,-169.198)"><path
             d="M 0,0 C -136.172,74.216 -228.51,167.495 -206.245,208.347 -183.98,249.2 -55.544,222.152 80.628,147.936 216.8,73.719 345.236,46.671 367.501,87.524 389.766,128.376 297.427,221.655 161.256,295.871"
             style="fill:none;stroke:url(#linearGradient670);stroke-width:0.5;stroke-linecap:butt;stroke-linejoin:miter;stroke-miterlimit:10;stroke-dasharray:none;stroke-opacity:1"
             id="path672" /></g><g
           id="g674"
           transform="translate(113.934,-174.1292)"><path
             d="M 0,0 C -136.172,74.216 -228.51,167.495 -206.245,208.347 -183.98,249.2 -55.544,222.152 80.628,147.936 216.8,73.719 345.236,46.671 367.501,87.524 389.766,128.376 297.427,221.655 161.256,295.871"
             style="fill:none;stroke:url(#linearGradient682);stroke-width:0.5;stroke-linecap:butt;stroke-linejoin:miter;stroke-miterlimit:10;stroke-dasharray:none;stroke-opacity:1"
             id="path684" /></g><g
           id="g686"
           transform="translate(111.2464,-179.0603)"><path
             d="M 0,0 C -136.172,74.216 -228.51,167.495 -206.245,208.347 -183.98,249.2 -55.544,222.152 80.628,147.936 216.8,73.719 345.236,46.671 367.501,87.524 389.766,128.376 297.427,221.655 161.256,295.871"
             style="fill:none;stroke:url(#linearGradient694);stroke-width:0.5;stroke-linecap:butt;stroke-linejoin:miter;stroke-miterlimit:10;stroke-dasharray:none;stroke-opacity:1"
             id="path696" /></g></g></g></g></svg>
