<?xml version="1.0" encoding="UTF-8" standalone="no"?>
<svg
   xmlns:dc="http://purl.org/dc/elements/1.1/"
   xmlns:cc="http://creativecommons.org/ns#"
   xmlns:rdf="http://www.w3.org/1999/02/22-rdf-syntax-ns#"
   xmlns:svg="http://www.w3.org/2000/svg"
   xmlns="http://www.w3.org/2000/svg"
   xmlns:sodipodi="http://sodipodi.sourceforge.net/DTD/sodipodi-0.dtd"
   xmlns:inkscape="http://www.inkscape.org/namespaces/inkscape"
   inkscape:version="1.0 (4035a4f, 2020-05-01)"
   sodipodi:docname="logo_datyca_colori.svg"
   viewBox="0 0 835.8147 290.64133"
   height="290.64133"
   width="835.8147"
   xml:space="preserve"
   id="svg10"
   version="1.1"><metadata
     id="metadata16"><rdf:RDF><cc:Work
         rdf:about=""><dc:format>image/svg+xml</dc:format><dc:type
           rdf:resource="http://purl.org/dc/dcmitype/StillImage" /><dc:title></dc:title></cc:Work></rdf:RDF></metadata><defs
     id="defs14"><clipPath
       id="clipPath26"
       clipPathUnits="userSpaceOnUse"><path
         id="path24"
         d="M 0,217.981 H 626.861 V 0 H 0 Z" /></clipPath></defs><sodipodi:namedview
     inkscape:current-layer="g18"
     inkscape:window-maximized="0"
     inkscape:window-y="329"
     inkscape:window-x="844"
     inkscape:cy="145.32066"
     inkscape:cx="417.90735"
     inkscape:zoom="0.68631455"
     showgrid="false"
     id="namedview12"
     inkscape:window-height="767"
     inkscape:window-width="1352"
     inkscape:pageshadow="2"
     inkscape:pageopacity="0"
     guidetolerance="10"
     gridtolerance="10"
     objecttolerance="10"
     borderopacity="1"
     bordercolor="#666666"
     pagecolor="#ffffff" /><g
     transform="matrix(1.3333333,0,0,-1.3333333,0,290.64133)"
     inkscape:label="Datyca_logo_nuovo_01"
     inkscape:groupmode="layer"
     id="g18"><g
       id="g20"><g
         clip-path="url(#clipPath26)"
         id="g22"><g
           transform="translate(66.9851,77.0142)"
           id="g28"><path
             id="path30"
             style="fill:#141e5a;fill-opacity:1;fill-rule:nonzero;stroke:none"
             d="M 0,0 H -14.246 V 61.689 H 0 c 17.383,0 27.185,-10.848 27.185,-30.583 C 27.185,10.717 17.644,0 0,0 M 2.353,77.961 H -33.981 V -16.337 H 2.353 c 28.295,0 44.96,17.579 44.96,47.508 0,29.93 -16.665,46.79 -44.96,46.79" /></g><g
           transform="translate(168.3074,88.9734)"
           id="g32"><path
             id="path34"
             style="fill:#141e5a;fill-opacity:1;fill-rule:nonzero;stroke:none"
             d="m 0,0 c 0,-8.196 -7.376,-13.933 -16.596,-13.933 -7.24,0 -11.952,3.484 -11.952,9.016 0,5.532 4.439,8.81 12.771,9.356 L 0,5.532 Z m -12.362,48.901 c -18.782,0 -31.758,-9.903 -32.305,-24.246 h 18.236 c 0.956,5.464 6.01,9.289 13.249,9.289 C -4.986,33.944 0,29.983 0,22.743 v -4.986 l -18.782,-1.161 c -19.191,-1.161 -29.641,-8.878 -29.641,-22.538 0,-13.454 10.859,-22.538 25.338,-22.538 9.63,0 18.919,4.644 23.017,12.498 h 0.409 v -11.61 h 19.26 v 51.564 c 0,15.026 -12.635,24.929 -31.963,24.929" /></g><g
           transform="translate(284.5483,77.568)"
           id="g36"><path
             id="path38"
             style="fill:#141e5a;fill-opacity:1;fill-rule:nonzero;stroke:none"
             d="M 0,0 H -0.41 L -16.665,59.009 H -28.01 -38.52 -57.984 V 77.046 H -77.927 V 59.009 H -88.103 V 43.915 h 10.176 V 4.098 c 0,-14.684 6.83,-20.558 24.246,-20.558 4.029,0 7.581,0.41 9.63,0.82 v 14.752 c -1.23,-0.205 -3.21,-0.342 -4.986,-0.342 -6.079,0 -8.947,2.801 -8.947,8.606 v 36.539 h 24.723 l 21.104,-60.58 -0.683,-2.868 c -1.571,-6.01 -5.873,-8.606 -13.318,-8.606 -0.819,0 -3.825,0.069 -4.507,0.205 v -15.435 c 0.751,-0.137 6.829,-0.273 7.581,-0.273 18.781,0 28.001,6.761 34.421,25.953 L 37.359,59.009 H 16.323 Z" /></g><g
           transform="translate(361.6552,75.8603)"
           id="g40"><path
             id="path42"
             style="fill:#141e5a;fill-opacity:1;fill-rule:nonzero;stroke:none"
             d="m 0,0 c -10.313,0 -16.801,8.469 -16.801,23.153 0,14.411 6.488,23.153 16.733,23.153 8.674,0 14.137,-5.533 15.23,-13.318 h 18.577 c -0.956,16.732 -13.864,29.026 -34.08,29.026 -22.334,0 -36.676,-15.025 -36.676,-38.861 0,-24.177 14.342,-38.929 36.812,-38.929 19.738,0 32.851,11.132 34.012,28.616 H 15.23 C 13.933,4.576 8.401,0 0,0" /></g><g
           transform="translate(450.7826,88.9734)"
           id="g44"><path
             id="path46"
             style="fill:#141e5a;fill-opacity:1;fill-rule:nonzero;stroke:none"
             d="m 0,0 c 0,-8.196 -7.376,-13.933 -16.596,-13.933 -7.24,0 -11.952,3.484 -11.952,9.016 0,5.532 4.439,8.81 12.771,9.356 L 0,5.532 Z m -12.362,48.901 c -18.782,0 -31.758,-9.903 -32.304,-24.246 h 18.235 c 0.956,5.464 6.01,9.289 13.25,9.289 C -4.986,33.944 0,29.983 0,22.743 v -4.986 l -18.782,-1.161 c -19.191,-1.161 -29.641,-8.878 -29.641,-22.538 0,-13.454 10.859,-22.538 25.339,-22.538 9.63,0 18.918,4.644 23.016,12.498 h 0.409 v -11.61 h 19.26 v 51.564 c 0,15.026 -12.635,24.929 -31.963,24.929" /></g><g
           transform="translate(488.161,134.8281)"
           id="g48"><path
             id="path50"
             style="fill:#141e5a;fill-opacity:1;fill-rule:nonzero;stroke:none"
             d="m 0,0 h 4.528 v -16.208 h 9.21 v -3.55 H 0 Z" /></g><g
           transform="translate(505.4188,115.0703)"
           id="g52"><path
             id="path54"
             style="fill:#141e5a;fill-opacity:1;fill-rule:nonzero;stroke:none"
             d="M 0,0 V 19.758 H 13.815 V 16.259 H 4.502 V 11.706 H 12.58 V 8.232 H 4.502 V 3.499 h 9.493 V 0 Z" /></g><g
           transform="translate(540.661,126.0039)"
           id="g56"><path
             id="path58"
             style="fill:#141e5a;fill-opacity:1;fill-rule:nonzero;stroke:none"
             d="m 0,0 v -10.934 h -3.962 l -0.103,2.033 h -0.052 c -1.003,-1.261 -2.598,-2.316 -5.351,-2.316 -5.865,0 -8.927,4.477 -8.927,10.008 0,5.789 3.473,10.316 9.982,10.316 3.705,0 6.38,-1.492 8.13,-3.987 L -3.499,2.881 c -1.184,1.801 -2.676,2.753 -4.785,2.753 -3.679,0 -5.531,-2.958 -5.531,-6.766 0,-3.833 1.698,-6.637 5.248,-6.637 2.444,0 4.245,1.44 4.245,4.013 v 0.335 H -8.465 V 0 Z" /></g><g
           transform="translate(556.245,122.814)"
           id="g60"><path
             id="path62"
             style="fill:#141e5a;fill-opacity:1;fill-rule:nonzero;stroke:none"
             d="M 0,0 -2.649,7.898 H -2.701 L -5.376,0 Z M 1.158,-3.421 H -6.534 L -8,-7.744 h -4.554 l 7.203,19.758 H 0.104 L 7.332,-7.744 H 2.625 Z" /></g><g
           transform="translate(566.788,134.8281)"
           id="g64"><path
             id="path66"
             style="fill:#141e5a;fill-opacity:1;fill-rule:nonzero;stroke:none"
             d="m 0,0 h 4.528 v -16.208 h 9.21 v -3.55 H 0 Z" /></g><g
           transform="translate(495.1844,91.834)"
           id="g68"><path
             id="path70"
             style="fill:#155de9;fill-opacity:1;fill-rule:nonzero;stroke:none"
             d="m 0,0 c 3.833,0 5.969,2.109 5.969,6.354 0,4.348 -2.29,6.406 -6.073,6.406 H -2.495 V 0 Z m -7.023,16.259 h 7.409 c 7.152,0 10.187,-4.579 10.187,-9.828 0,-5.711 -3.472,-9.93 -10.085,-9.93 h -7.511 z" /></g><g
           transform="translate(509.9198,88.335)"
           id="g72"><path
             id="path74"
             style="fill:#155de9;fill-opacity:1;fill-rule:nonzero;stroke:none"
             d="M 0,0 V 19.758 H 13.815 V 16.259 H 4.502 V 11.706 H 12.58 V 8.232 H 4.502 V 3.499 h 9.493 V 0 Z" /></g><g
           transform="translate(526.4325,90.856)"
           id="g76"><path
             id="path78"
             style="fill:#155de9;fill-opacity:1;fill-rule:nonzero;stroke:none"
             d="M 0,0 2.393,2.933 C 3.962,1.492 5.969,0.644 8.258,0.644 c 2.315,0 3.447,0.874 3.447,2.314 0,1.57 -1.595,1.956 -4.476,2.599 -3.344,0.772 -6.483,2.032 -6.483,5.917 0,3.396 2.624,6.046 7.564,6.046 3.293,0 5.633,-1.003 7.486,-2.521 l -2.109,-3.01 c -1.622,1.338 -3.448,2.083 -5.429,2.083 -2.007,0 -3.01,-0.977 -3.01,-2.186 0,-1.518 1.467,-1.852 4.322,-2.496 3.498,-0.797 6.637,-1.981 6.637,-5.994 0,-3.627 -2.829,-6.2 -8.026,-6.2 C 4.502,-2.804 1.98,-1.749 0,0" /></g><path
           id="path80"
           style="fill:#155de9;fill-opacity:1;fill-rule:nonzero;stroke:none"
           d="m 546.366,108.093 h 4.528 V 88.335 h -4.528 z" /><g
           transform="translate(573.4012,99.2686)"
           id="g82"><path
             id="path84"
             style="fill:#155de9;fill-opacity:1;fill-rule:nonzero;stroke:none"
             d="m 0,0 v -10.934 h -3.961 l -0.103,2.033 h -0.051 c -1.004,-1.261 -2.599,-2.316 -5.352,-2.316 -5.865,0 -8.927,4.477 -8.927,10.008 0,5.789 3.473,10.316 9.982,10.316 3.705,0 6.38,-1.492 8.13,-3.987 L -3.498,2.881 c -1.184,1.801 -2.676,2.753 -4.785,2.753 -3.679,0 -5.531,-2.958 -5.531,-6.766 0,-3.833 1.698,-6.637 5.248,-6.637 2.444,0 4.245,1.44 4.245,4.013 v 0.335 H -8.464 V 0 Z" /></g><g
           transform="translate(595.5468,108.0928)"
           id="g86"><path
             id="path88"
             style="fill:#155de9;fill-opacity:1;fill-rule:nonzero;stroke:none"
             d="m 0,0 v -19.758 h -4.399 l -8.592,13.275 h -0.052 v -13.275 h -4.399 V 0 h 4.991 l 8.001,-12.76 h 0.051 V 0 Z" /></g><g
           transform="translate(488.161,81.3569)"
           id="g90"><path
             id="path92"
             style="fill:#f21863;fill-opacity:1;fill-rule:nonzero;stroke:none"
             d="m 0,0 h 4.528 v -16.208 h 9.21 v -3.55 H 0 Z" /></g><g
           transform="translate(516.3007,69.3428)"
           id="g94"><path
             id="path96"
             style="fill:#f21863;fill-opacity:1;fill-rule:nonzero;stroke:none"
             d="M 0,0 -2.649,7.898 H -2.701 L -5.376,0 Z M 1.158,-3.422 H -6.534 L -8,-7.744 h -4.554 l 7.203,19.758 H 0.104 L 7.332,-7.744 H 2.624 Z" /></g><g
           transform="translate(536.1053,65.0723)"
           id="g98"><path
             id="path100"
             style="fill:#f21863;fill-opacity:1;fill-rule:nonzero;stroke:none"
             d="M 0,0 C 1.338,0 2.418,0.771 2.418,2.418 2.418,4.09 1.338,4.836 0,4.836 H -4.76 V 0 Z M -4.76,12.812 V 8.026 h 4.348 c 1.312,0 2.392,0.772 2.392,2.393 0,1.646 -1.08,2.393 -2.392,2.393 z M 3.112,6.637 c 2.316,-0.54 3.834,-2.161 3.834,-4.656 0,-3.55 -3.036,-5.454 -6.998,-5.454 h -9.21 v 19.758 h 9.39 c 3.911,0 6.381,-1.955 6.381,-5.068 0,-2.213 -1.363,-3.834 -3.397,-4.528 z" /></g><g
           transform="translate(467.3372,152.9454)"
           id="g102"><path
             id="path104"
             style="fill:#141e5a;fill-opacity:1;fill-rule:nonzero;stroke:none"
             d="m 0,0 c 0,5.146 4.172,9.318 9.318,9.318 5.146,0 9.318,-4.172 9.318,-9.318 0,-5.146 -4.172,-9.318 -9.318,-9.318 C 4.172,-9.318 0,-5.146 0,0" /></g><g
           transform="translate(488.3611,170.7126)"
           id="g106"><path
             id="path108"
             style="fill:#155de9;fill-opacity:1;fill-rule:nonzero;stroke:none"
             d="m 0,0 c 0,5.146 4.172,9.318 9.318,9.318 5.146,0 9.318,-4.172 9.318,-9.318 0,-5.146 -4.172,-9.318 -9.318,-9.318 C 4.172,-9.318 0,-5.146 0,0" /></g><g
           transform="translate(467.3372,188.4797)"
           id="g110"><path
             id="path112"
             style="fill:#f21863;fill-opacity:1;fill-rule:nonzero;stroke:none"
             d="m 0,0 c 0,5.146 4.172,9.318 9.318,9.318 5.146,0 9.318,-4.172 9.318,-9.318 0,-5.146 -4.172,-9.318 -9.318,-9.318 C 4.172,-9.318 0,-5.146 0,0" /></g></g></g></g></svg>
