<?xml version="1.0" encoding="UTF-8" standalone="no"?>
<svg
   xmlns:dc="http://purl.org/dc/elements/1.1/"
   xmlns:cc="http://creativecommons.org/ns#"
   xmlns:rdf="http://www.w3.org/1999/02/22-rdf-syntax-ns#"
   xmlns:svg="http://www.w3.org/2000/svg"
   xmlns="http://www.w3.org/2000/svg"
   xmlns:sodipodi="http://sodipodi.sourceforge.net/DTD/sodipodi-0.dtd"
   xmlns:inkscape="http://www.inkscape.org/namespaces/inkscape"
   sodipodi:docname="logo_datyca.svg"
   inkscape:version="1.0 (4035a4f, 2020-05-01)"
   id="svg263"
   version="1.1"
   viewBox="0 0 148.8387 43.37051"
   height="43.37051mm"
   width="148.8387mm">
  <defs
     id="defs257" />
  <sodipodi:namedview
     inkscape:window-maximized="0"
     inkscape:window-y="25"
     inkscape:window-x="0"
     inkscape:window-height="907"
     inkscape:window-width="1252"
     fit-margin-bottom="0"
     fit-margin-right="0"
     fit-margin-left="0"
     fit-margin-top="0"
     showgrid="false"
     inkscape:document-rotation="0"
     inkscape:current-layer="layer1"
     inkscape:document-units="mm"
     inkscape:cy="66.984042"
     inkscape:cx="314.88659"
     inkscape:zoom="1.3475234"
     inkscape:pageshadow="2"
     inkscape:pageopacity="0.0"
     borderopacity="1.0"
     bordercolor="#666666"
     pagecolor="#ffffff"
     id="base" />
  <metadata
     id="metadata260">
    <rdf:RDF>
      <cc:Work
         rdf:about="">
        <dc:format>image/svg+xml</dc:format>
        <dc:type
           rdf:resource="http://purl.org/dc/dcmitype/StillImage" />
        <dc:title></dc:title>
      </cc:Work>
    </rdf:RDF>
  </metadata>
  <g
     transform="translate(-72.448842,-172.30642)"
     id="layer1"
     inkscape:groupmode="layer"
     inkscape:label="Layer 1">
    <g
       style="fill:#ffffff;fill-opacity:1"
       transform="matrix(0.26458333,0,0,0.26458333,72.448842,48.452329)"
       id="g24">
      <path
         style="fill:#ffffff;fill-opacity:1"
         class="cls-1"
         d="M 36.33,510.99 H 0 v 94.3 h 36.33 c 28.3,0 44.96,-17.58 44.96,-47.51 0,-29.93 -16.66,-46.79 -44.96,-46.79 z m -2.35,77.96 H 19.73 v -61.69 h 14.25 c 17.38,0 27.19,10.85 27.19,30.58 0,19.73 -9.54,31.11 -27.19,31.11 z"
         id="path14" />
      <path
         style="fill:#ffffff;fill-opacity:1"
         class="cls-1"
         d="m 122.94,528.09 c -18.78,0 -31.76,9.9 -32.3,24.25 h 18.24 c 0.96,-5.46 6.01,-9.29 13.25,-9.29 8.2,0 13.18,3.96 13.18,11.2 v 4.99 l -18.78,1.16 c -19.19,1.16 -29.64,8.88 -29.64,22.54 0,13.66 10.86,22.54 25.34,22.54 9.63,0 18.92,-4.64 23.02,-12.5 h 0.41 v 11.61 h 19.26 v -51.56 c 0,-15.03 -12.63,-24.93 -31.96,-24.93 z m 12.36,48.9 c 0,8.2 -7.38,13.93 -16.6,13.93 -7.24,0 -11.95,-3.48 -11.95,-9.02 0,-5.54 4.44,-8.81 12.77,-9.36 l 15.78,-1.09 v 5.53 z"
         id="path16" />
      <path
         style="fill:#ffffff;fill-opacity:1"
         class="cls-1"
         d="m 251.54,588.39 h -0.41 l -16.25,-59.01 h -41.32 v -18.04 h -19.94 v 18.04 h -10.18 v 15.09 h 10.18 v 39.82 c 0,14.68 6.83,20.56 24.25,20.56 4.03,0 7.58,-0.41 9.63,-0.82 v -14.75 c -1.23,0.2 -3.21,0.34 -4.99,0.34 -6.08,0 -8.95,-2.8 -8.95,-8.61 v -36.54 h 24.72 l 21.1,60.58 -0.68,2.87 c -1.57,6.01 -5.87,8.61 -13.32,8.61 -0.82,0 -3.82,-0.07 -4.51,-0.21 v 15.44 c 0.75,0.14 6.83,0.27 7.58,0.27 18.78,0 28,-6.76 34.42,-25.95 l 26.02,-76.7 h -21.04 l -16.32,59.01 z"
         id="path18" />
      <path
         style="fill:#ffffff;fill-opacity:1"
         class="cls-1"
         d="m 328.65,590.1 c -10.31,0 -16.8,-8.47 -16.8,-23.15 0,-14.68 6.49,-23.15 16.73,-23.15 8.67,0 14.14,5.53 15.23,13.32 h 18.58 c -0.96,-16.73 -13.86,-29.03 -34.08,-29.03 -22.33,0 -36.68,15.03 -36.68,38.86 0,23.83 14.34,38.93 36.81,38.93 19.74,0 32.85,-11.13 34.01,-28.62 h -18.58 c -1.3,8.26 -6.83,12.84 -15.23,12.84 z"
         id="path20" />
      <path
         style="fill:#ffffff;fill-opacity:1"
         class="cls-1"
         d="m 405.42,528.09 c -18.78,0 -31.76,9.9 -32.3,24.25 h 18.24 c 0.96,-5.46 6.01,-9.29 13.25,-9.29 8.2,0 13.18,3.96 13.18,11.2 v 4.99 l -18.78,1.16 c -19.19,1.16 -29.64,8.88 -29.64,22.54 0,13.66 10.86,22.54 25.34,22.54 9.63,0 18.92,-4.64 23.02,-12.5 h 0.41 v 11.61 H 437.4 V 553.03 C 437.4,538 424.77,528.1 405.44,528.1 Z m 12.36,48.9 c 0,8.2 -7.38,13.93 -16.6,13.93 -7.24,0 -11.95,-3.48 -11.95,-9.02 0,-5.54 4.44,-8.81 12.77,-9.36 l 15.78,-1.09 v 5.53 z"
         id="path22" />
    </g>
    <g
       style="fill:#ffffff;fill-opacity:1"
       transform="matrix(0.26458333,0,0,0.26458333,72.448842,48.452329)"
       id="g54">
      <path
         style="fill:#ffffff;fill-opacity:1"
         class="cls-1"
         d="m 455.16,531.08 h 4.53 v 16.21 h 9.21 v 3.55 h -13.74 z"
         id="path26" />
      <path
         style="fill:#ffffff;fill-opacity:1"
         class="cls-1"
         d="m 472.42,550.84 v -19.76 h 13.82 v 3.5 h -9.31 v 4.55 h 8.08 v 3.47 h -8.08 v 4.73 h 9.49 v 3.5 h -14 z"
         id="path28" />
      <path
         style="fill:#ffffff;fill-opacity:1"
         class="cls-1"
         d="m 507.66,539.9 v 10.93 h -3.96 l -0.1,-2.03 h -0.05 c -1,1.26 -2.6,2.32 -5.35,2.32 -5.87,0 -8.93,-4.48 -8.93,-10.01 0,-5.53 3.47,-10.32 9.98,-10.32 3.71,0 6.38,1.49 8.13,3.99 l -3.22,2.24 c -1.18,-1.8 -2.68,-2.75 -4.79,-2.75 -3.68,0 -5.53,2.96 -5.53,6.77 0,3.81 1.7,6.64 5.25,6.64 2.44,0 4.25,-1.44 4.25,-4.01 v -0.33 h -4.14 v -3.42 h 8.46 z"
         id="path30" />
      <path
         style="fill:#ffffff;fill-opacity:1"
         class="cls-1"
         d="m 524.4,546.51 h -7.69 l -1.47,4.32 h -4.55 l 7.2,-19.76 h 5.45 l 7.23,19.76 h -4.71 l -1.47,-4.32 z m -1.16,-3.42 -2.65,-7.9 h -0.05 l -2.67,7.9 h 5.38 z"
         id="path32" />
      <path
         style="fill:#ffffff;fill-opacity:1"
         class="cls-1"
         d="m 533.78,531.08 h 4.53 v 16.21 h 9.21 v 3.55 h -13.74 z"
         id="path34" />
      <path
         style="fill:#ffffff;fill-opacity:1"
         class="cls-1"
         d="m 455.16,557.81 h 7.41 c 7.15,0 10.19,4.58 10.19,9.83 0,5.71 -3.47,9.93 -10.08,9.93 h -7.51 v -19.76 z m 7.02,16.26 c 3.83,0 5.97,-2.11 5.97,-6.35 0,-4.24 -2.29,-6.41 -6.07,-6.41 h -2.39 v 12.76 h 2.5 z"
         id="path36" />
      <path
         style="fill:#ffffff;fill-opacity:1"
         class="cls-1"
         d="m 476.92,577.57 v -19.76 h 13.82 v 3.5 h -9.31 v 4.55 h 8.08 v 3.47 h -8.08 v 4.73 h 9.49 v 3.5 h -14 z"
         id="path38" />
      <path
         style="fill:#ffffff;fill-opacity:1"
         class="cls-1"
         d="m 493.43,575.05 2.39,-2.93 c 1.57,1.44 3.58,2.29 5.87,2.29 2.29,0 3.45,-0.87 3.45,-2.31 0,-1.57 -1.59,-1.96 -4.48,-2.6 -3.34,-0.77 -6.48,-2.03 -6.48,-5.92 0,-3.4 2.62,-6.05 7.56,-6.05 3.29,0 5.63,1 7.49,2.52 l -2.11,3.01 c -1.62,-1.34 -3.45,-2.08 -5.43,-2.08 -1.98,0 -3.01,0.98 -3.01,2.19 0,1.52 1.47,1.85 4.32,2.5 3.5,0.8 6.64,1.98 6.64,5.99 0,3.63 -2.83,6.2 -8.03,6.2 -3.68,0 -6.2,-1.06 -8.18,-2.8 z"
         id="path40" />
      <path
         style="fill:#ffffff;fill-opacity:1"
         class="cls-1"
         d="m 513.36,577.57 v -19.76 h 4.53 v 19.76 z"
         id="path42" />
      <path
         style="fill:#ffffff;fill-opacity:1"
         class="cls-1"
         d="m 540.4,566.64 v 10.93 h -3.96 l -0.1,-2.03 h -0.05 c -1,1.26 -2.6,2.32 -5.35,2.32 -5.87,0 -8.93,-4.48 -8.93,-10.01 0,-5.53 3.47,-10.32 9.98,-10.32 3.71,0 6.38,1.49 8.13,3.99 l -3.22,2.24 c -1.18,-1.8 -2.68,-2.75 -4.79,-2.75 -3.68,0 -5.53,2.96 -5.53,6.77 0,3.81 1.7,6.64 5.25,6.64 2.44,0 4.25,-1.44 4.25,-4.01 v -0.33 h -4.14 v -3.42 h 8.46 z"
         id="path44" />
      <path
         style="fill:#ffffff;fill-opacity:1"
         class="cls-1"
         d="m 562.54,557.81 v 19.76 h -4.4 l -8.59,-13.27 h -0.05 v 13.27 h -4.4 v -19.76 h 4.99 l 8,12.76 h 0.05 v -12.76 z"
         id="path46" />
      <path
         style="fill:#ffffff;fill-opacity:1"
         class="cls-1"
         d="m 455.16,584.55 h 4.53 v 16.21 h 9.21 v 3.55 h -13.74 z"
         id="path48" />
      <path
         style="fill:#ffffff;fill-opacity:1"
         class="cls-1"
         d="m 484.46,599.99 h -7.69 l -1.47,4.32 h -4.55 l 7.2,-19.76 h 5.45 l 7.23,19.76 h -4.71 l -1.47,-4.32 z m -1.16,-3.42 -2.65,-7.9 h -0.05 l -2.67,7.9 h 5.38 z"
         id="path50" />
      <path
         style="fill:#ffffff;fill-opacity:1"
         class="cls-1"
         d="m 506.21,594.2 c 2.32,0.54 3.83,2.16 3.83,4.66 0,3.55 -3.04,5.45 -7,5.45 h -9.21 v -19.76 h 9.39 c 3.91,0 6.38,1.96 6.38,5.07 0,2.21 -1.36,3.83 -3.4,4.53 v 0.05 z m -7.87,-6.17 v 4.79 h 4.35 c 1.31,0 2.39,-0.77 2.39,-2.39 0,-1.62 -1.08,-2.39 -2.39,-2.39 h -4.35 z m 4.76,12.81 c 1.34,0 2.42,-0.77 2.42,-2.42 0,-1.65 -1.08,-2.42 -2.42,-2.42 h -4.76 v 4.84 z"
         id="path52" />
    </g>
    <circle
       style="fill:#ffffff;stroke-width:0.264583;fill-opacity:1"
       class="cls-1"
       cx="189.83124"
       cy="184.173"
       r="2.4659166"
       id="circle56" />
    <circle
       style="fill:#ffffff;stroke-width:0.264583;fill-opacity:1"
       class="cls-1"
       cx="195.39542"
       cy="179.47134"
       r="2.4659166"
       id="circle58" />
    <circle
       style="fill:#ffffff;stroke-width:0.264583;fill-opacity:1"
       class="cls-1"
       cx="189.83124"
       cy="174.77234"
       r="2.4659166"
       id="circle60" />
  </g>
</svg>
